if (_typeface_js && _typeface_js.loadFace) _typeface_js.loadFace({"glyphs":{"S":{"x_min":32.421875,"x_max":593.375,"ha":610,"o":"m 592 812 q 592 803 594 810 q 583 786 589 795 q 569 766 577 776 q 552 745 560 755 q 535 728 543 735 q 522 717 527 720 l 503 721 q 477 752 491 738 q 446 778 463 767 q 410 797 429 790 q 371 804 391 804 q 306 792 334 804 q 258 761 278 780 q 229 719 239 742 q 219 674 219 696 q 223 643 219 659 q 243 609 228 627 q 285 571 258 591 q 358 528 313 551 q 449 475 412 500 q 509 424 486 450 q 542 366 532 397 q 553 298 553 336 q 526 176 553 234 q 455 75 500 119 q 350 5 410 31 q 223 -21 290 -21 q 164 -12 197 -21 q 101 10 131 -3 q 52 42 72 25 q 32 77 32 60 q 40 101 32 86 q 59 133 48 117 q 83 160 71 148 q 105 172 96 172 q 124 155 113 172 q 154 118 136 138 q 200 81 173 98 q 268 65 228 65 q 345 78 309 65 q 407 116 380 92 q 448 173 433 140 q 464 244 464 206 q 455 295 464 271 q 427 342 447 320 q 373 387 407 365 q 287 434 339 410 q 213 479 243 455 q 168 528 184 503 q 144 579 151 553 q 138 629 138 605 q 158 718 138 674 q 217 796 179 762 q 308 853 254 831 q 427 875 361 875 q 517 856 476 875 q 592 812 559 837 "},"/":{"x_min":-75.28125,"x_max":640.25,"ha":555,"o":"m 29 -193 q 11 -203 22 -198 q -11 -212 0 -208 q -35 -221 -23 -217 q -55 -228 -47 -225 l -75 -211 l 537 1050 q 577 1070 556 1062 q 619 1084 599 1078 l 640 1069 l 29 -193 "},"K":{"x_min":0,"x_max":787.421875,"ha":747,"o":"m 392 825 q 323 804 349 816 q 295 783 297 793 l 248 439 l 559 765 q 581 793 576 783 q 582 811 587 804 q 561 820 577 817 q 523 825 546 823 l 527 855 l 787 855 l 783 825 q 746 820 762 823 q 717 812 730 817 q 693 801 704 808 q 672 783 682 794 l 343 455 l 580 105 q 600 83 590 91 q 627 75 611 76 q 664 80 642 74 q 718 99 686 86 l 730 74 q 679 39 704 55 q 633 12 655 23 q 592 -4 611 1 q 560 -10 573 -10 q 542 -8 550 -10 q 526 -1 533 -6 q 511 12 518 3 q 495 34 503 20 l 247 432 l 198 70 q 218 50 196 62 q 282 29 239 38 l 278 0 l 0 0 l 4 29 q 72 49 46 38 q 99 70 98 61 l 198 783 q 179 804 200 791 q 113 825 158 816 l 118 855 l 396 855 l 392 825 "},"7":{"x_min":79.359375,"x_max":587.34375,"ha":558,"o":"m 587 791 q 510 643 549 718 q 434 496 472 569 q 363 355 397 424 q 299 226 328 287 q 246 115 269 165 q 206 29 222 65 q 101 -21 162 -3 l 79 1 q 201 200 145 105 q 305 384 256 295 q 398 560 354 474 q 489 732 442 645 l 210 732 q 192 730 202 732 q 172 720 183 729 q 148 690 162 711 q 115 630 134 670 l 90 643 q 100 682 94 658 q 113 730 107 705 q 127 778 120 755 q 140 817 134 802 l 571 817 l 587 791 "},"d":{"x_min":36,"x_max":627,"ha":658,"o":"m 422 287 q 436 380 428 328 q 453 490 444 432 q 429 515 442 502 q 400 539 415 528 q 368 557 385 550 q 331 564 351 564 q 273 548 300 564 q 223 508 246 533 q 183 450 200 483 q 153 384 165 418 q 134 316 140 350 q 128 257 128 283 q 137 177 128 213 q 161 117 146 142 q 195 78 176 92 q 234 65 214 65 q 275 81 252 65 q 322 129 297 98 q 371 200 346 159 q 422 287 397 240 m 627 45 q 532 -10 569 7 q 472 -28 495 -28 q 448 -17 459 -28 q 430 18 438 -6 q 417 85 422 43 q 413 190 413 128 q 363 108 389 147 q 307 38 336 68 q 247 -10 277 7 q 187 -28 216 -28 q 137 -14 164 -28 q 88 29 111 0 q 50 104 65 58 q 36 213 36 150 q 47 317 36 267 q 82 414 59 368 q 141 499 105 459 q 225 571 177 539 q 266 594 244 583 q 311 614 288 605 q 357 629 334 624 q 401 635 380 635 q 436 624 418 635 q 471 599 454 613 q 487 696 479 648 q 499 784 494 743 q 508 858 505 825 q 512 913 512 892 q 509 937 512 928 q 502 951 507 946 q 493 957 498 955 q 481 958 487 958 q 463 955 475 958 q 439 948 451 952 q 408 940 425 944 l 400 966 q 458 991 429 979 q 511 1011 486 1002 q 555 1025 536 1020 q 582 1031 574 1031 q 610 1018 601 1031 q 620 975 620 1006 q 615 906 620 948 q 602 812 610 864 q 584 701 594 760 q 564 582 575 642 q 544 463 553 522 q 526 355 534 405 q 513 265 518 305 q 509 202 509 225 q 516 88 509 123 q 539 52 523 52 q 575 56 557 52 q 618 70 594 60 l 627 45 "},",":{"x_min":-11.765625,"x_max":206,"ha":278,"o":"m 206 69 q 198 28 206 51 q 176 -20 190 5 q 144 -73 162 -46 q 104 -125 125 -100 q 58 -171 82 -150 q 11 -207 35 -192 l -11 -183 q 92 0 92 -73 q 88 23 92 12 q 76 43 84 35 q 53 55 67 52 q 18 56 39 59 l 12 87 q 40 107 20 95 q 83 129 60 118 q 128 148 106 140 q 161 155 151 155 q 182 141 174 148 q 195 126 190 135 q 203 103 201 117 q 206 69 206 90 "},"Y":{"x_min":69.171875,"x_max":816.578125,"ha":777,"o":"m 497 0 l 194 0 l 198 29 q 281 55 257 42 q 307 77 305 68 l 347 373 q 315 480 335 423 q 272 593 295 537 q 224 699 248 649 q 176 782 199 749 q 161 799 169 793 q 142 808 153 805 q 115 811 131 811 q 75 808 99 810 l 69 837 q 109 846 87 841 q 153 855 131 851 q 194 862 174 859 q 226 865 213 865 q 261 838 244 865 q 292 785 276 816 q 325 720 308 755 q 357 649 341 685 q 385 577 372 612 q 408 512 398 543 q 423 459 418 481 l 633 780 q 629 809 644 799 q 568 825 614 819 l 572 855 l 816 855 l 812 825 q 745 807 769 817 q 710 781 721 798 l 445 367 l 405 78 q 409 68 404 73 q 424 55 413 62 q 454 42 436 48 q 501 29 473 35 l 497 0 "},"E":{"x_min":0,"x_max":634.8125,"ha":642,"o":"m 580 166 q 553 63 567 107 q 531 0 539 19 l 0 0 l 4 29 q 72 49 46 38 q 99 70 98 61 l 198 783 q 179 804 200 791 q 113 825 158 816 l 118 855 l 617 855 l 634 837 q 626 799 631 820 q 614 757 621 778 q 601 717 608 736 q 588 685 594 698 l 559 685 q 562 737 562 716 q 556 770 561 757 q 543 787 552 782 q 523 793 535 793 l 296 793 l 256 498 l 510 498 l 523 479 q 508 459 516 469 q 490 439 499 449 q 472 421 481 429 q 457 406 463 412 q 434 425 446 418 q 403 436 421 432 q 359 442 385 440 q 295 444 333 444 l 248 444 l 202 105 q 204 87 201 95 q 221 73 208 79 q 258 65 233 68 q 323 62 282 62 l 405 62 q 453 65 434 62 q 489 80 473 68 q 520 115 505 92 q 554 178 535 138 l 580 166 "},"y":{"x_min":-122.859375,"x_max":606,"ha":628,"o":"m 606 583 q 593 524 606 560 q 552 427 580 487 q 478 276 524 366 q 366 55 432 185 q 276 -105 321 -33 q 183 -230 231 -178 q 84 -310 136 -282 q -24 -339 33 -339 q -62 -335 -44 -339 q -94 -327 -80 -332 q -115 -315 -107 -322 q -122 -304 -122 -309 q -116 -281 -122 -296 q -100 -251 -109 -266 q -79 -221 -90 -235 q -59 -203 -68 -208 q -30 -220 -42 -214 q -6 -229 -17 -226 q 14 -232 3 -232 q 37 -233 25 -233 q 145 -179 92 -233 q 254 -29 197 -126 q 238 59 248 9 q 216 160 228 108 q 191 265 204 213 q 166 364 178 318 q 141 447 153 410 q 119 505 129 484 q 92 550 103 540 q 70 561 81 561 q 53 558 64 561 q 31 552 41 556 q 3 544 18 549 l -4 569 q 50 594 24 582 q 96 615 75 606 q 132 629 117 624 q 156 635 148 635 q 173 630 166 635 q 187 615 180 625 q 200 588 193 605 q 214 548 206 571 q 243 462 227 512 q 273 354 258 412 q 304 235 289 297 q 331 112 319 173 q 375 199 353 154 q 417 287 397 243 q 455 370 438 330 q 485 443 472 409 q 506 500 499 476 q 514 536 514 524 q 478 572 514 570 q 416 557 456 574 l 404 582 q 489 622 452 610 q 550 635 526 635 q 571 633 561 635 q 589 626 582 631 q 601 610 597 620 q 606 583 606 600 "},"\"":{"x_min":156.671875,"x_max":505.28125,"ha":536,"o":"m 206 592 q 183 584 195 586 q 156 582 171 582 l 179 937 q 198 946 187 941 q 220 956 208 951 q 242 964 231 960 q 259 970 252 967 l 284 955 l 206 592 m 427 592 q 404 584 417 586 q 377 582 392 582 l 400 937 q 419 946 408 941 q 441 956 430 951 q 463 964 453 960 q 480 970 474 967 l 505 955 l 427 592 "},"g":{"x_min":-3.390625,"x_max":596.15625,"ha":618,"o":"m 229 65 q 267 87 243 65 q 320 148 292 110 q 377 236 348 186 q 428 342 406 287 q 434 395 431 367 q 442 456 437 424 q 448 483 444 470 q 457 507 452 496 q 434 525 446 515 q 407 543 422 534 q 376 558 393 552 q 340 564 359 564 q 281 548 309 564 q 230 508 253 533 q 188 450 206 483 q 156 384 169 418 q 135 316 143 350 q 128 257 128 283 q 137 177 128 213 q 158 117 145 142 q 190 78 172 92 q 229 65 208 65 m 596 611 q 559 564 573 592 q 540 487 546 536 q 526 340 531 407 q 519 216 522 274 q 511 105 516 158 q 497 0 507 53 q 454 -131 485 -69 q 381 -239 423 -193 q 287 -312 339 -285 q 183 -339 236 -339 q 122 -330 155 -339 q 61 -309 89 -322 q 15 -283 33 -297 q -3 -257 -3 -269 q 5 -231 -3 -245 q 25 -203 14 -216 q 48 -182 37 -191 q 64 -173 59 -173 q 75 -180 69 -173 q 89 -197 81 -187 q 110 -218 98 -207 q 139 -240 122 -230 q 179 -257 155 -250 q 235 -264 203 -264 q 339 -205 301 -264 q 398 -32 378 -146 q 407 38 404 5 q 414 103 411 72 q 417 165 416 135 q 420 227 419 195 q 369 139 398 184 q 308 57 341 94 q 243 -3 276 20 q 180 -28 210 -28 q 132 -15 158 -28 q 85 25 107 -2 q 48 98 63 54 q 34 206 34 143 q 46 311 34 260 q 83 409 59 362 q 145 496 108 455 q 233 571 183 537 q 274 594 252 583 q 318 615 295 606 q 364 629 341 624 q 408 635 387 635 q 437 630 423 635 q 464 619 451 626 q 490 604 478 612 q 512 589 501 596 q 545 615 528 604 q 580 635 562 626 l 596 611 "},"e":{"x_min":43,"x_max":509,"ha":546,"o":"m 265 530 q 222 481 243 510 q 183 418 201 452 q 155 347 166 384 q 141 274 143 310 q 280 337 229 308 q 358 390 332 365 q 392 438 385 415 q 400 485 400 461 q 394 521 400 506 q 380 546 389 536 q 360 559 371 555 q 337 564 349 564 q 306 556 327 564 q 265 530 285 548 m 509 515 q 504 475 509 496 q 486 431 500 454 q 447 385 472 409 q 382 334 423 360 q 282 280 341 308 q 142 221 223 252 q 157 152 146 183 q 185 98 169 120 q 220 63 201 76 q 257 51 238 51 q 291 54 271 51 q 339 67 312 57 q 399 97 365 77 q 473 149 432 116 q 486 136 481 145 q 494 121 492 126 q 396 43 439 73 q 320 -1 353 14 q 259 -22 286 -17 q 208 -28 232 -28 q 157 -15 186 -28 q 103 24 128 -2 q 60 96 78 52 q 43 205 43 140 q 55 309 43 258 q 92 408 68 360 q 152 497 116 455 q 232 573 187 539 q 267 597 247 586 q 308 617 287 608 q 351 630 329 625 q 395 635 373 635 q 445 624 424 635 q 481 596 466 613 q 502 558 495 580 q 509 515 509 537 "},"J":{"x_min":-179.046875,"x_max":426.609375,"ha":392,"o":"m 422 825 q 353 804 379 816 q 326 783 327 793 l 237 139 q 208 4 226 58 q 169 -86 191 -49 q 121 -148 147 -123 q 67 -195 95 -173 q 28 -221 49 -209 q -14 -241 6 -232 q -54 -253 -35 -249 q -84 -258 -72 -258 q -120 -251 -103 -258 q -150 -236 -137 -245 q -171 -219 -163 -228 q -179 -204 -179 -210 q -169 -185 -179 -197 q -146 -163 -159 -174 q -119 -144 -132 -152 q -96 -136 -105 -136 q -83 -142 -90 -136 q -66 -155 -75 -148 q -42 -168 -56 -162 q -6 -175 -27 -175 q 29 -163 9 -175 q 68 -122 48 -151 q 105 -40 88 -92 q 133 90 122 10 l 229 783 q 225 792 229 787 q 208 802 221 797 q 173 813 196 808 q 113 825 150 819 l 116 855 l 426 855 l 422 825 "},"|":{"x_min":29.15625,"x_max":297.0625,"ha":278,"o":"m 119 -193 q 85 -212 105 -202 q 48 -228 65 -222 l 29 -211 l 206 1050 q 241 1070 225 1062 q 276 1084 257 1078 l 297 1069 l 119 -193 "},"^":{"x_min":63.75,"x_max":579.203125,"ha":636,"o":"m 579 430 q 543 404 560 414 q 503 383 526 393 l 483 401 l 375 891 l 151 430 q 133 416 143 423 q 112 403 123 409 q 92 391 102 396 q 76 383 83 386 l 63 401 l 349 991 q 370 1007 358 999 q 396 1024 383 1016 q 421 1039 408 1032 q 442 1051 433 1046 l 579 430 "},"q":{"x_min":36,"x_max":607.0625,"ha":623,"o":"m 235 65 q 276 85 253 65 q 326 138 300 105 q 378 211 352 170 q 427 295 404 253 l 464 515 q 440 531 453 523 q 412 547 427 540 q 381 559 398 554 q 346 564 365 564 q 287 548 315 564 q 233 508 258 533 q 188 450 209 483 q 153 384 168 418 q 131 316 139 350 q 123 257 123 283 q 133 177 123 213 q 159 117 143 142 q 195 78 175 92 q 235 65 215 65 m 607 611 q 588 594 595 601 q 574 577 580 586 q 565 552 569 567 q 556 515 560 538 q 526 333 541 425 q 497 156 511 242 q 473 -6 484 70 q 455 -144 461 -83 q 449 -246 449 -205 q 455 -303 448 -288 q 432 -310 446 -306 q 404 -320 419 -315 q 376 -329 390 -324 q 354 -339 362 -334 l 331 -319 q 341 -244 334 -293 q 359 -128 349 -194 q 382 14 370 -63 q 409 176 395 92 q 357 99 385 136 q 301 34 330 62 q 243 -11 272 5 q 187 -28 214 -28 q 138 -15 164 -28 q 89 25 111 -2 q 51 98 66 54 q 36 206 36 143 q 49 312 36 260 q 90 411 63 364 q 154 499 116 458 q 240 571 191 540 q 280 594 259 583 q 325 615 302 606 q 370 629 347 624 q 415 635 393 635 q 444 630 430 635 q 472 620 458 626 q 497 607 485 614 q 521 593 510 600 q 554 615 537 605 q 591 635 572 625 l 607 611 "},"b":{"x_min":71.40625,"x_max":600.046875,"ha":648,"o":"m 409 545 q 371 528 396 545 q 318 481 347 511 q 257 410 288 451 q 201 320 226 369 q 190 232 194 271 q 187 173 187 194 q 197 135 187 155 q 225 97 208 115 q 265 69 243 80 q 310 58 287 58 q 356 66 335 58 q 395 89 377 75 q 427 120 413 103 q 452 155 441 138 q 477 206 468 179 q 492 259 487 232 q 499 311 497 285 q 502 359 502 336 q 493 441 502 406 q 471 499 485 476 q 442 533 458 522 q 409 545 425 545 m 600 413 q 578 268 598 341 q 509 127 558 195 q 458 68 486 96 q 397 19 430 40 q 325 -15 363 -2 q 245 -28 287 -28 q 213 -20 230 -28 q 178 0 196 -13 q 143 28 160 12 q 112 65 125 45 q 91 105 99 84 q 83 147 83 126 q 87 202 83 164 q 98 291 91 240 q 115 402 106 342 q 133 523 124 461 q 151 646 142 585 q 168 759 160 707 q 179 851 175 811 q 184 912 184 891 q 180 937 184 928 q 171 951 177 946 q 160 957 166 955 q 148 958 154 958 q 130 955 141 958 q 108 948 119 952 q 80 940 95 944 l 71 966 q 129 990 99 979 q 185 1011 159 1002 q 231 1025 211 1020 q 259 1031 251 1031 q 285 1018 278 1031 q 293 975 293 1006 q 289 920 293 954 q 280 842 286 885 q 266 747 274 798 q 250 641 259 696 q 233 532 242 587 q 216 425 225 476 q 288 523 251 483 q 359 588 325 563 q 424 624 394 613 q 475 635 454 635 q 525 620 502 635 q 565 577 548 605 q 591 508 581 550 q 600 413 600 467 "},"D":{"x_min":0.546875,"x_max":731,"ha":758,"o":"m 731 505 q 719 384 731 445 q 684 268 707 324 q 627 163 661 212 q 548 77 593 113 q 448 20 503 41 q 326 0 392 0 l 0 0 l 4 29 q 73 49 47 38 q 100 70 98 61 l 201 809 l 97 797 l 97 840 q 251 867 175 859 q 397 875 328 875 q 539 848 477 875 q 643 773 600 822 q 708 657 686 725 q 731 505 731 589 m 342 817 l 321 817 q 301 817 311 817 l 203 94 q 205 77 201 84 q 221 65 210 70 q 254 59 233 61 q 309 57 275 57 q 401 75 359 57 q 478 127 443 94 q 539 203 513 160 q 584 295 566 246 q 611 394 602 343 q 621 493 621 445 q 602 625 621 565 q 549 727 584 684 q 461 794 513 770 q 342 817 410 817 "},"z":{"x_min":-2.71875,"x_max":526.296875,"ha":526,"o":"m 526 599 q 425 480 470 539 q 338 359 381 420 q 252 234 296 298 q 155 102 208 170 q 173 108 157 103 q 210 113 189 113 q 247 106 224 113 q 297 91 269 99 q 352 76 324 83 q 405 70 380 70 q 420 71 411 70 q 439 80 429 73 q 461 103 449 88 q 487 143 474 118 l 511 130 q 478 60 492 88 q 447 16 463 32 q 408 -7 430 0 q 354 -14 387 -14 q 290 -6 320 -14 q 234 9 261 0 q 184 24 208 17 q 139 32 160 32 q 116 28 128 32 q 90 18 105 25 q 56 1 75 11 q 12 -21 37 -8 l -2 1 q 67 91 31 42 q 140 192 103 140 q 212 295 177 244 q 280 394 248 347 q 339 478 311 440 q 385 539 366 515 l 181 539 q 154 535 165 539 q 133 523 143 532 q 116 497 124 514 q 98 451 108 480 l 71 456 q 97 561 84 517 q 115 635 109 605 q 143 625 128 631 q 181 620 158 620 l 512 620 l 526 599 "},"w":{"x_min":3.015625,"x_max":867,"ha":875,"o":"m 867 583 q 863 541 867 565 q 851 484 860 517 q 825 406 841 451 q 783 303 809 362 q 720 170 757 244 q 632 1 683 95 q 618 -5 626 -2 q 601 -13 610 -9 q 584 -21 593 -17 q 570 -28 576 -25 l 547 -6 q 537 75 542 31 q 524 165 531 119 q 511 256 518 211 q 498 341 504 301 q 484 414 491 381 q 472 467 478 446 q 463 424 471 453 q 441 357 455 395 q 409 273 428 318 q 370 182 391 229 q 326 90 349 135 q 281 6 304 45 q 266 -1 274 3 q 248 -10 258 -5 q 229 -20 239 -15 q 213 -28 220 -25 l 192 -6 q 182 77 187 31 q 172 173 177 124 q 161 271 167 222 q 150 365 156 321 q 139 446 145 409 q 127 505 133 482 q 117 534 123 523 q 105 551 112 545 q 92 559 99 557 q 79 561 85 561 q 62 558 73 561 q 40 552 51 556 q 12 544 27 549 l 3 569 q 57 594 31 582 q 104 615 83 606 q 141 629 125 624 q 165 635 156 635 q 194 612 184 635 q 215 542 203 590 q 224 488 219 523 q 235 412 230 454 q 247 324 241 370 q 257 237 252 278 q 265 162 262 196 q 269 112 268 129 q 325 228 296 165 q 377 354 353 291 q 417 478 401 418 q 436 586 433 538 q 458 603 446 594 q 482 619 470 612 q 504 630 494 626 q 522 635 515 635 q 529 623 525 635 q 538 594 533 612 q 547 552 542 576 q 557 503 553 528 l 567 452 q 575 407 572 427 q 586 336 580 375 q 599 257 593 298 q 611 176 605 216 q 620 100 617 135 q 703 265 671 193 q 754 389 736 336 q 778 479 772 442 q 785 542 785 516 q 775 564 785 556 q 747 573 765 573 q 724 570 738 573 q 696 562 711 567 l 683 587 q 728 610 707 601 q 765 624 749 619 q 793 632 782 630 q 810 635 805 635 q 831 633 821 635 q 849 626 841 631 q 862 610 857 620 q 867 583 867 600 "},"$":{"x_min":-11.0625,"x_max":539.0625,"ha":558,"o":"m 169 644 q 173 617 169 631 q 189 588 177 603 q 221 557 200 573 q 273 522 241 540 l 308 767 q 250 753 276 765 q 206 724 225 741 q 178 685 188 706 q 169 644 169 664 m 416 232 q 410 272 416 253 q 391 309 404 291 q 357 343 378 326 q 307 378 336 361 l 262 64 q 323 86 295 70 q 371 123 350 101 q 404 173 392 145 q 416 232 416 201 m 537 775 q 534 759 541 772 q 515 731 526 746 q 490 702 503 715 q 471 685 477 689 l 452 688 q 412 730 436 711 q 361 760 389 750 l 323 496 q 404 448 370 471 q 459 399 437 424 q 490 346 480 374 q 501 283 501 317 q 481 183 501 231 q 428 96 462 135 q 349 28 394 57 q 252 -12 303 0 l 240 -93 q 230 -102 234 -99 q 222 -107 226 -105 q 212 -110 217 -109 q 199 -114 207 -111 l 186 -99 l 196 -20 q 187 -20 192 -20 q 178 -21 182 -21 q 120 -12 153 -21 q 58 9 87 -4 q 9 39 29 22 q -11 73 -11 56 q -3 96 -11 81 q 15 126 4 111 q 38 152 26 141 q 60 163 50 163 q 78 148 66 163 q 106 115 89 134 q 149 81 124 97 q 208 61 173 65 l 257 406 l 241 414 q 169 457 198 434 q 122 504 140 480 q 97 552 105 528 q 90 599 90 576 q 106 675 90 637 q 152 743 122 712 q 224 798 182 775 q 317 829 266 820 l 328 907 q 340 914 336 912 q 347 918 345 917 q 354 921 350 920 q 367 926 358 923 l 382 911 l 371 834 l 372 834 q 463 816 420 834 q 537 775 506 799 "},"\\":{"x_min":98.34375,"x_max":462.546875,"ha":555,"o":"m 438 -228 q 420 -221 431 -225 q 398 -212 409 -217 q 377 -203 387 -208 q 362 -193 367 -198 l 98 1069 l 123 1084 q 162 1070 142 1078 q 200 1050 183 1062 l 462 -211 l 438 -228 "},"~":{"x_min":61.046875,"x_max":653.8125,"ha":667,"o":"m 653 525 q 610 456 635 492 q 556 391 585 421 q 496 343 527 362 q 436 324 465 324 q 381 341 408 324 q 326 378 354 358 q 270 415 298 398 q 216 433 243 433 q 154 406 185 433 q 91 322 124 379 l 61 340 q 103 409 78 373 q 158 475 128 445 q 218 523 187 504 q 278 543 248 543 q 336 525 307 543 q 391 488 364 508 q 445 451 419 468 q 497 434 471 434 q 558 460 527 434 q 623 542 588 486 l 653 525 "},"-":{"x_min":29.15625,"x_max":393.375,"ha":435,"o":"m 393 366 q 379 335 387 351 q 365 308 371 319 l 41 308 l 29 324 q 42 354 34 339 q 58 383 50 369 l 380 383 l 393 366 "},"Q":{"x_min":61,"x_max":749.25,"ha":770,"o":"m 634 512 q 621 620 634 569 q 585 708 609 670 q 527 767 562 745 q 448 790 493 790 q 355 770 396 790 q 283 716 315 750 q 229 639 251 683 q 192 547 206 595 q 170 452 177 500 q 164 360 164 403 q 177 243 164 297 q 214 151 190 190 q 273 90 239 112 q 349 68 307 68 q 443 89 401 68 q 516 144 485 110 q 570 225 547 179 q 606 320 592 271 q 627 420 621 370 q 634 512 634 470 m 749 -78 q 710 -131 729 -108 q 674 -169 691 -154 q 642 -192 656 -184 q 618 -201 628 -201 q 546 -181 580 -201 q 479 -133 512 -161 q 414 -73 447 -104 q 348 -18 382 -41 q 319 -21 334 -21 q 205 6 254 -21 q 125 82 157 34 q 76 194 92 130 q 61 328 61 257 q 68 419 61 371 q 91 515 76 467 q 126 608 105 563 q 174 690 147 653 q 236 762 203 728 q 306 820 269 795 q 387 860 344 845 q 478 875 430 875 q 593 847 544 875 q 673 771 642 819 q 720 660 705 723 q 736 525 736 596 q 728 427 736 476 q 704 329 720 377 q 665 236 688 281 q 611 152 641 191 q 532 68 574 105 q 442 6 491 30 q 493 -29 468 -9 q 541 -66 517 -49 q 588 -96 565 -84 q 635 -108 612 -108 q 651 -105 643 -108 q 671 -96 660 -102 q 698 -80 683 -90 q 735 -55 713 -70 l 749 -78 "},"M":{"x_min":2.71875,"x_max":1041.75,"ha":1025,"o":"m 1039 825 q 996 819 1020 825 q 948 801 973 812 l 866 70 q 887 50 865 62 q 954 29 910 38 l 950 0 l 672 0 l 676 29 q 746 49 718 38 q 775 70 773 61 l 848 718 l 482 0 l 454 0 l 265 710 l 173 70 q 192 50 172 62 q 257 29 212 38 l 252 0 l 2 0 l 6 29 q 75 49 50 38 q 101 70 100 61 l 207 800 q 163 820 186 814 q 123 825 141 825 l 127 855 l 307 855 q 316 852 312 855 q 323 844 320 850 q 329 827 326 838 q 337 798 333 816 l 506 190 l 817 798 q 833 827 827 816 q 845 844 840 838 q 854 852 850 850 q 865 855 859 855 l 1041 855 l 1039 825 "},"C":{"x_min":52,"x_max":689.84375,"ha":675,"o":"m 689 807 q 684 792 691 803 q 665 766 676 780 q 639 738 653 752 q 617 717 626 724 l 597 722 q 530 772 569 752 q 434 793 490 793 q 373 780 407 793 q 312 746 339 767 q 239 662 269 712 q 190 557 209 612 q 162 447 171 501 q 154 349 154 392 q 174 222 154 276 q 225 133 194 168 q 294 81 257 98 q 368 65 332 65 q 459 89 406 65 q 588 173 512 113 q 594 167 592 172 q 600 158 597 163 q 605 149 602 153 q 608 143 607 145 q 521 65 562 96 q 444 16 481 34 q 375 -10 408 -2 q 310 -18 341 -18 q 212 4 259 -18 q 130 68 165 26 q 73 171 94 110 q 52 311 52 232 q 64 441 52 375 q 103 570 77 507 q 171 689 129 632 q 269 791 212 746 q 376 852 318 830 q 497 875 433 875 q 611 855 564 875 q 689 807 659 835 "},"[":{"x_min":1.359375,"x_max":465.265625,"ha":397,"o":"m 465 1067 q 453 1033 461 1050 q 440 1009 445 1017 l 262 1009 l 99 -150 l 273 -150 l 293 -169 q 281 -199 288 -183 q 267 -228 274 -216 l 1 -228 l 185 1085 l 446 1085 l 465 1067 "},"L":{"x_min":0,"x_max":575.140625,"ha":623,"o":"m 575 166 q 547 63 561 107 q 524 0 533 19 l 0 0 l 4 29 q 72 49 46 38 q 99 70 98 61 l 198 783 q 179 804 200 791 q 113 825 158 816 l 118 855 l 396 855 l 392 825 q 323 804 349 816 q 295 783 297 793 l 202 105 q 205 84 201 93 q 222 71 209 76 q 256 64 234 66 q 312 62 278 62 l 398 62 q 447 65 427 62 q 483 80 467 68 q 514 115 499 92 q 548 178 529 138 l 575 166 "},"!":{"x_min":35,"x_max":302.484375,"ha":278,"o":"m 192 103 q 184 60 192 82 q 164 20 177 38 q 133 -9 151 2 q 91 -21 114 -21 q 49 -2 64 -21 q 35 46 35 15 q 42 87 35 65 q 64 126 50 108 q 96 155 78 143 q 136 167 114 167 q 176 149 161 167 q 192 103 192 131 m 169 263 q 146 248 155 254 q 119 237 136 242 l 103 251 l 161 909 q 185 925 170 916 q 215 944 199 935 q 247 962 231 954 q 278 974 263 969 l 302 957 l 169 263 "}," ":{"x_min":0,"x_max":0,"ha":278},"{":{"x_min":69.171875,"x_max":502.5625,"ha":435,"o":"m 502 1052 q 451 1014 475 1035 q 407 968 427 993 q 375 913 388 942 q 356 848 362 883 q 352 783 351 808 q 355 736 353 758 q 357 689 356 714 q 351 624 357 664 q 335 569 347 596 q 306 518 324 542 q 264 474 288 494 q 212 442 240 454 q 262 421 242 436 q 292 382 282 405 q 303 328 302 359 q 299 260 305 298 q 286 191 294 220 q 269 137 278 163 q 253 87 261 112 q 241 28 246 62 q 237 -37 236 -8 q 247 -89 238 -66 q 274 -132 256 -112 q 323 -172 293 -152 l 304 -214 q 220 -165 255 -190 q 165 -108 185 -140 q 139 -39 145 -77 q 140 48 133 0 q 153 114 145 88 q 169 164 161 140 q 185 216 177 188 q 200 285 193 243 q 185 368 207 340 q 116 397 163 397 l 104 397 q 96 396 100 397 q 88 395 93 396 q 75 392 84 394 l 69 428 q 190 491 147 449 q 241 584 233 533 q 246 630 245 611 q 246 666 246 650 q 244 696 246 682 q 242 725 242 710 q 242 761 242 741 q 247 809 243 781 q 324 969 261 901 q 490 1084 388 1037 l 502 1052 "},"X":{"x_min":-13.5625,"x_max":815.21875,"ha":794,"o":"m 735 0 l 457 0 l 461 29 q 505 36 488 31 q 532 46 523 40 q 540 62 540 53 q 534 86 541 72 l 393 371 l 194 86 q 193 44 173 56 q 269 29 212 33 l 265 0 l -13 0 l -9 29 q 61 44 31 32 q 111 86 92 57 l 358 443 l 198 768 q 183 793 190 783 q 165 808 175 802 q 141 818 155 814 q 107 825 127 822 l 111 855 l 389 855 l 385 825 q 314 809 333 820 q 311 768 296 798 l 433 521 l 607 768 q 617 794 617 784 q 607 810 617 804 q 578 820 597 817 q 531 825 558 823 l 536 855 l 815 855 l 811 825 q 771 819 788 823 q 738 809 753 815 q 712 792 724 802 q 690 768 700 783 l 467 451 l 648 86 q 663 61 655 71 q 683 45 672 52 q 709 35 695 39 q 740 29 722 31 l 735 0 "},"P":{"x_min":-0.609375,"x_max":661,"ha":654,"o":"m 661 639 q 638 530 661 581 q 576 443 616 480 q 485 384 537 405 q 374 363 433 363 q 322 369 348 363 q 277 386 295 375 l 270 436 q 315 420 293 426 q 360 414 338 414 q 442 428 404 414 q 506 469 479 443 q 548 532 533 496 q 563 613 563 569 q 544 709 563 670 q 495 772 526 748 q 422 807 463 796 q 335 818 381 818 l 317 818 q 299 817 308 818 l 198 70 q 200 61 196 66 q 216 51 204 56 q 248 40 227 46 q 300 29 268 35 l 296 0 l 0 0 l 3 29 q 71 49 46 38 q 99 70 97 61 l 200 810 q 150 802 176 807 q 95 790 124 797 l 95 830 q 153 849 123 841 q 218 863 183 858 q 292 871 253 868 q 378 875 332 875 q 495 860 443 875 q 584 815 548 845 q 641 741 621 785 q 661 639 661 697 "},"%":{"x_min":70.53125,"x_max":828.109375,"ha":892,"o":"m 730 262 q 709 353 730 324 q 659 383 688 383 q 622 370 637 383 q 594 336 606 357 q 574 289 582 315 q 562 237 566 263 q 556 187 558 211 q 554 146 554 162 q 573 62 554 89 q 625 35 593 35 q 661 47 645 35 q 688 79 676 59 q 707 123 699 98 q 720 174 715 148 q 727 222 725 199 q 730 262 730 245 m 822 255 q 806 162 822 211 q 760 72 790 113 q 691 5 731 31 q 601 -21 650 -21 q 542 -6 568 -21 q 499 32 517 7 q 471 90 481 57 q 462 164 462 124 q 469 225 462 193 q 489 287 476 257 q 522 345 503 318 q 566 393 542 373 q 620 426 591 414 q 682 439 649 439 q 741 425 715 439 q 785 386 767 411 q 812 328 802 361 q 822 255 822 294 m 173 10 q 154 0 166 5 q 129 -8 143 -4 q 104 -17 116 -13 q 83 -24 91 -21 l 70 0 l 723 805 q 767 825 742 817 q 811 839 792 833 l 828 816 l 173 10 m 343 661 q 322 752 343 723 q 270 782 301 782 q 234 769 249 782 q 206 735 218 756 q 187 688 195 714 q 175 636 179 662 q 169 586 171 610 q 167 545 167 561 q 187 461 167 488 q 238 434 207 434 q 273 446 258 434 q 301 478 289 458 q 320 522 312 497 q 333 573 328 547 q 340 621 338 598 q 343 661 343 644 m 435 654 q 427 593 435 624 q 407 530 420 561 q 374 472 393 500 q 330 423 354 444 q 276 390 305 402 q 213 378 246 378 q 155 392 180 378 q 112 431 130 406 q 84 489 94 456 q 75 562 75 523 q 82 624 75 592 q 102 686 89 656 q 135 744 116 717 q 179 792 155 772 q 233 825 204 813 q 295 838 262 838 q 354 824 328 838 q 398 785 380 810 q 425 727 415 760 q 435 654 435 693 "},"#":{"x_min":37.296875,"x_max":630.75,"ha":558,"o":"m 240 400 l 359 400 l 423 574 l 304 574 l 240 400 m 522 652 l 617 652 l 630 635 q 617 602 625 620 q 602 574 609 585 l 493 574 l 429 400 l 527 400 l 540 381 q 527 350 535 368 q 514 322 520 333 l 400 322 l 323 115 q 295 98 311 105 q 262 86 280 92 l 248 99 l 330 322 l 211 322 l 134 115 q 106 98 122 105 q 73 86 91 92 l 58 99 l 141 322 l 50 322 l 37 338 q 50 369 42 352 q 65 400 57 386 l 169 400 l 233 574 l 140 574 l 127 590 q 140 621 132 605 q 155 652 147 638 l 263 652 l 336 848 q 365 864 350 859 q 396 876 381 869 l 411 861 l 333 652 l 452 652 l 524 848 q 555 864 539 859 q 584 876 570 869 l 600 861 l 522 652 "},"_":{"x_min":-35.953125,"x_max":495.78125,"ha":606,"o":"m 495 -105 q 483 -137 491 -120 q 469 -167 476 -154 l -25 -167 l -35 -148 q -24 -118 -31 -135 q -8 -89 -16 -102 l 483 -89 l 495 -105 "},"+":{"x_min":50.859375,"x_max":488.328125,"ha":522,"o":"m 488 404 q 482 389 486 397 l 476 372 q 468 356 472 364 q 461 343 464 348 l 304 343 l 278 160 q 264 153 272 156 q 246 147 255 150 q 229 142 238 145 q 213 139 220 140 l 200 153 l 226 343 l 63 343 l 50 359 q 63 390 56 372 q 78 421 71 407 l 237 421 l 263 604 q 295 614 275 608 q 328 624 315 620 l 343 608 l 316 421 l 476 421 l 488 404 "},")":{"x_min":-55.609375,"x_max":350.421875,"ha":410,"o":"m 339 425 q 288 212 323 313 q 205 27 254 110 q 93 -118 155 -56 q -38 -214 31 -180 l -55 -183 q 35 -95 -9 -150 q 118 34 80 -40 q 185 202 156 109 q 230 405 215 296 q 243 601 244 503 q 227 785 242 699 q 185 942 212 872 q 119 1057 158 1013 l 144 1088 q 251 986 208 1054 q 320 830 295 919 q 349 637 344 741 q 339 425 354 533 "},"'":{"x_min":156.671875,"x_max":284.859375,"ha":278,"o":"m 206 592 q 183 584 195 586 q 156 582 171 582 l 179 937 q 198 946 187 941 q 220 956 208 951 q 241 964 231 960 q 259 970 252 967 l 284 955 l 206 592 "},"}":{"x_min":-55.609375,"x_max":377.765625,"ha":435,"o":"m 377 441 q 256 379 300 420 q 205 285 212 338 q 200 238 201 258 q 200 203 200 219 q 202 174 201 188 q 204 145 204 161 q 204 109 205 129 q 200 62 204 89 q 173 -24 193 15 q 121 -98 153 -64 q 48 -162 90 -133 q -42 -214 6 -190 l -55 -180 q -4 -143 -28 -164 q 39 -97 20 -123 q 71 -42 58 -72 q 88 23 84 -11 q 93 69 92 49 q 94 104 94 88 q 92 134 94 120 q 91 164 91 148 q 91 200 90 180 q 95 247 92 220 q 111 302 99 274 q 140 352 122 329 q 182 396 158 376 q 234 427 206 415 q 184 449 204 434 q 154 487 164 464 q 143 541 145 510 q 147 610 141 572 q 161 679 153 650 q 177 732 168 707 q 192 782 185 757 q 204 841 199 807 q 209 908 210 879 q 199 960 208 937 q 171 1003 190 984 q 122 1042 152 1022 l 143 1084 q 227 1036 193 1061 q 281 979 261 1010 q 307 910 301 948 q 307 822 314 871 q 293 756 301 782 q 278 705 286 730 q 262 654 269 681 q 248 585 254 626 q 261 502 240 530 q 330 474 283 474 l 342 474 q 349 474 346 474 q 357 476 353 475 q 372 479 362 477 l 377 441 "},"a":{"x_min":36,"x_max":610.359375,"ha":625,"o":"m 408 292 q 418 355 412 322 q 430 419 424 388 q 440 475 435 449 q 447 515 444 500 q 425 532 437 523 q 398 548 412 540 q 369 559 385 555 q 338 564 354 564 q 279 548 307 564 q 228 508 252 533 q 186 450 205 483 q 155 384 168 418 q 135 316 142 350 q 128 257 128 283 q 135 177 128 213 q 155 117 142 142 q 186 78 168 92 q 224 65 203 65 q 263 85 240 65 q 312 139 287 106 q 363 212 338 172 q 408 292 388 253 m 610 45 q 515 -10 551 7 q 459 -28 478 -28 q 435 -19 447 -28 q 415 12 424 -11 q 402 77 407 35 q 397 184 397 118 q 353 116 379 153 q 299 46 328 79 q 239 -6 270 14 q 180 -28 208 -28 q 132 -15 157 -28 q 85 25 107 -2 q 50 98 64 54 q 36 206 36 143 q 48 311 36 260 q 86 409 61 362 q 147 497 111 456 q 231 571 183 538 q 271 594 249 583 q 317 615 293 606 q 363 629 340 624 q 407 635 386 635 q 435 631 421 635 q 461 621 449 627 q 486 608 474 615 q 507 594 497 601 q 541 615 523 605 q 577 635 558 626 l 590 611 q 571 594 579 601 q 558 576 564 586 q 548 552 552 567 q 539 515 544 538 q 520 415 529 466 q 504 318 511 364 q 494 238 498 273 q 491 189 491 204 q 493 124 491 150 q 499 81 495 97 q 509 58 503 65 q 524 51 516 51 q 556 55 537 51 q 602 70 575 58 l 610 45 "},"T":{"x_min":76.640625,"x_max":758.25,"ha":724,"o":"m 463 0 l 161 0 l 165 29 q 247 55 223 42 q 273 78 271 68 l 373 793 l 189 793 q 172 789 180 793 q 155 773 164 785 q 132 737 145 761 q 101 674 120 714 l 76 687 q 83 727 78 705 q 93 772 87 749 q 105 816 99 795 q 118 855 111 837 l 743 855 l 758 837 q 751 800 755 821 q 741 758 747 780 q 730 715 736 736 q 719 677 725 694 l 691 677 q 687 733 690 711 q 679 769 685 756 q 666 787 674 782 q 644 793 657 793 l 470 793 l 372 78 q 392 55 370 69 q 467 29 413 42 l 463 0 "},"=":{"x_min":33.90625,"x_max":545.96875,"ha":570,"o":"m 545 505 q 540 490 543 498 l 533 473 q 526 457 530 465 q 519 444 522 449 l 73 444 l 61 460 q 73 491 66 473 q 88 522 81 508 l 533 522 l 545 505 m 518 302 q 513 287 516 295 l 506 270 q 499 254 503 262 q 492 241 495 246 l 46 241 l 33 257 q 46 288 39 270 q 61 319 54 305 l 506 319 l 518 302 "},"N":{"x_min":0,"x_max":877.625,"ha":840,"o":"m 873 825 q 806 807 828 819 q 781 783 783 795 l 670 -21 q 644 -16 656 -18 q 623 -8 633 -13 q 606 6 614 -2 q 590 30 598 15 l 252 681 l 169 70 q 186 49 167 62 q 251 29 205 36 l 247 0 l 0 0 l 4 29 q 72 48 50 35 q 96 70 95 61 l 196 783 q 157 811 178 803 q 107 825 136 820 l 111 855 l 231 855 q 255 854 246 855 q 270 848 263 853 q 282 832 276 843 q 298 802 288 821 l 626 175 l 710 783 q 706 793 710 787 q 692 805 702 799 q 666 816 682 810 q 626 825 650 821 l 630 855 l 877 855 l 873 825 "},"2":{"x_min":0.265625,"x_max":533,"ha":558,"o":"m 533 682 q 513 588 533 640 q 446 466 494 537 q 317 301 398 396 q 111 78 235 206 l 365 78 q 384 83 375 78 q 400 97 392 88 q 414 117 408 106 q 425 140 420 128 q 445 202 437 167 l 475 194 l 440 0 l 9 0 l 0 50 q 207 267 123 172 q 341 436 290 362 q 413 565 391 510 q 435 662 435 620 q 404 742 435 711 q 317 774 373 774 q 271 761 291 774 q 235 727 250 748 q 210 682 220 707 q 197 633 200 657 q 177 622 186 627 q 158 612 168 616 q 138 604 149 607 q 114 600 128 601 l 99 620 q 129 694 104 655 q 191 764 154 732 q 274 817 228 796 q 367 838 320 838 q 431 828 401 838 q 483 800 461 819 q 519 752 506 781 q 533 682 533 723 "},"j":{"x_min":-259.546875,"x_max":311,"ha":341,"o":"m 255 590 q 253 564 255 582 q 248 520 251 545 q 243 466 246 495 q 237 410 240 437 q 231 359 234 382 q 227 320 228 335 q 221 267 224 297 q 215 201 219 236 q 206 126 211 166 q 194 44 201 86 q 161 -88 181 -34 q 117 -179 141 -142 q 67 -240 93 -216 q 12 -287 40 -265 q -27 -311 -5 -301 q -70 -327 -49 -321 q -109 -336 -91 -333 q -140 -339 -127 -339 q -180 -333 -159 -339 q -218 -320 -201 -328 q -248 -303 -236 -311 q -259 -287 -259 -294 q -250 -264 -259 -278 q -229 -237 -241 -250 q -204 -214 -217 -224 q -185 -204 -192 -204 q -172 -213 -180 -204 q -150 -232 -163 -222 q -116 -251 -136 -242 q -66 -260 -96 -260 q 28 -190 -8 -260 q 87 7 66 -120 q 102 103 96 57 q 112 187 108 148 q 119 256 116 225 q 124 305 122 286 q 127 334 125 316 q 131 373 129 352 q 135 416 133 394 q 139 457 137 438 q 142 492 141 477 q 144 515 144 508 q 141 540 144 531 q 136 553 139 549 q 127 559 132 558 q 116 561 122 561 q 98 558 110 561 q 76 552 87 556 q 48 544 63 549 l 38 569 q 95 594 66 582 q 148 615 123 606 q 190 629 172 624 q 217 635 208 635 q 245 626 236 635 q 255 590 255 618 m 311 855 q 304 818 311 836 q 287 784 298 799 q 260 759 276 769 q 226 750 245 750 q 183 797 183 750 q 188 834 183 815 q 205 868 194 853 q 231 894 216 884 q 266 904 246 904 q 299 891 287 904 q 311 855 311 878 "},"Z":{"x_min":21.03125,"x_max":694.5,"ha":693,"o":"m 164 68 l 493 68 q 518 74 506 68 q 543 97 531 80 q 570 142 556 114 q 601 215 583 171 l 634 205 q 626 155 630 183 q 616 100 621 128 q 607 45 611 72 q 598 0 602 19 l 33 0 l 21 30 l 556 792 l 270 792 q 247 784 260 792 q 219 760 233 777 q 190 718 204 744 q 164 653 176 691 l 128 661 l 177 872 q 207 862 193 865 q 234 857 221 858 q 262 855 248 855 q 294 855 276 855 l 682 855 l 694 823 l 164 68 "},"u":{"x_min":26.203125,"x_max":661.078125,"ha":693,"o":"m 661 45 q 567 -9 606 9 q 503 -28 529 -28 q 478 -16 490 -28 q 456 22 465 -4 q 443 93 447 50 q 445 201 440 137 q 386 109 417 151 q 322 36 355 66 q 253 -11 288 5 q 181 -28 218 -28 q 150 -17 168 -28 q 118 14 133 -6 q 92 66 103 35 q 82 138 82 97 q 85 190 82 159 q 94 257 89 221 q 107 332 100 293 q 119 406 113 371 q 128 470 124 441 q 132 515 132 499 q 129 540 132 531 q 124 553 127 549 q 115 559 120 558 q 104 561 110 561 q 86 558 98 561 q 63 552 75 556 q 34 544 49 549 l 26 569 q 83 594 54 582 q 136 615 112 606 q 179 629 161 624 q 206 635 198 635 q 233 622 226 635 q 240 577 240 609 q 235 526 240 558 q 225 456 231 494 q 213 377 219 418 q 200 299 206 337 q 190 229 194 261 q 186 177 186 197 q 199 83 186 112 q 238 54 213 54 q 274 67 252 54 q 325 109 297 80 q 387 187 354 139 q 457 303 421 234 q 467 361 462 332 q 477 418 472 391 q 484 471 481 446 q 488 515 488 495 q 486 540 488 531 q 481 553 484 549 q 473 559 477 558 q 462 561 469 561 q 446 558 456 561 q 424 552 435 556 q 399 544 412 549 l 388 569 q 445 594 417 582 q 496 615 473 606 q 537 629 519 624 q 563 635 555 635 q 588 622 582 635 q 595 577 595 609 q 590 526 595 558 q 580 457 586 495 q 567 378 574 419 q 553 299 559 337 q 543 227 547 260 q 539 171 539 194 q 547 80 539 110 q 573 51 556 51 q 609 55 591 51 q 651 69 627 59 l 661 45 "},"1":{"x_min":42.734375,"x_max":457.125,"ha":558,"o":"m 451 0 l 42 0 l 47 35 q 129 49 96 42 q 182 65 162 57 q 210 81 202 73 q 221 96 219 89 l 294 637 q 298 679 298 664 q 293 703 299 694 q 279 710 289 707 q 250 712 269 713 q 202 707 231 711 q 132 694 172 703 l 123 728 q 186 751 149 736 q 262 781 223 765 q 335 815 300 798 q 392 844 370 831 l 411 820 l 312 96 q 317 82 311 90 q 338 66 322 74 q 383 50 354 58 q 457 35 411 42 l 451 0 "},"k":{"x_min":58.75,"x_max":610.171875,"ha":610,"o":"m 299 961 q 294 894 299 934 q 284 805 290 855 q 269 699 277 756 q 250 583 260 642 q 231 462 241 523 q 212 343 221 401 l 358 454 q 435 514 405 489 q 473 555 465 539 q 466 576 481 570 q 404 582 450 583 l 401 608 q 478 622 441 613 q 558 631 515 631 q 600 621 591 631 q 610 588 610 612 q 595 560 610 578 q 552 517 581 542 q 484 463 524 492 q 393 403 444 434 l 314 355 q 350 302 332 333 q 386 238 368 271 q 421 171 404 204 q 454 111 438 138 q 486 68 471 85 q 514 51 500 51 q 548 53 530 51 q 591 69 566 55 l 603 46 q 525 -8 558 8 q 465 -26 491 -26 q 418 -2 441 -26 q 373 55 395 20 q 330 135 351 91 q 289 219 309 178 q 250 292 269 259 q 212 339 231 325 q 196 229 203 282 q 185 135 189 177 q 180 62 180 92 q 183 18 179 32 q 160 7 174 13 q 131 -5 146 1 q 104 -17 117 -11 q 82 -28 90 -23 l 58 -6 q 68 57 61 12 q 84 161 75 101 q 106 293 94 221 q 129 440 118 365 q 152 588 141 514 q 172 724 163 661 q 185 836 180 787 q 191 910 191 885 q 188 937 191 927 q 182 951 186 946 q 172 957 178 956 q 158 958 166 958 q 140 955 153 958 q 116 948 128 952 q 85 940 102 944 l 75 966 q 133 990 104 979 q 187 1011 162 1002 q 231 1025 212 1020 q 258 1031 250 1031 q 275 1028 268 1031 q 288 1019 283 1026 q 296 998 293 1012 q 299 961 299 984 "},"€":{"x_min":-10.828125,"x_max":588.375,"ha":558,"o":"m 354 316 l 155 316 q 163 196 152 245 q 195 118 174 148 q 244 74 216 88 q 304 61 273 61 q 342 66 323 61 q 383 85 361 72 q 433 120 405 98 q 495 173 460 142 q 500 167 498 172 q 505 158 503 163 q 510 149 508 153 q 513 143 512 145 q 436 65 471 96 q 372 15 402 34 q 312 -11 342 -3 q 249 -20 283 -20 q 165 0 203 -20 q 101 61 127 19 q 63 165 75 102 q 57 316 50 229 l 0 316 l -10 333 l -2 354 q 8 378 2 367 l 63 378 l 63 378 q 64 380 64 379 q 70 423 67 402 q 79 465 74 444 l 38 465 l 28 482 l 36 503 q 47 527 41 516 l 95 527 q 153 661 118 603 q 230 759 187 719 q 323 818 272 798 q 430 838 373 838 q 483 832 460 838 q 525 817 506 827 q 558 796 543 808 q 587 769 573 784 q 583 756 590 766 q 565 733 576 746 q 541 707 554 720 q 521 686 529 694 l 500 690 q 475 719 487 706 q 448 742 463 732 q 415 757 434 752 q 368 763 396 763 q 323 752 348 763 q 273 716 298 742 q 226 643 249 689 q 185 527 203 598 l 401 527 l 414 511 l 392 465 l 172 465 q 167 436 169 450 q 163 405 165 421 q 161 391 161 398 l 159 378 l 362 378 l 376 362 l 354 316 "},"<":{"x_min":33.90625,"x_max":545.96875,"ha":570,"o":"m 545 593 q 540 577 543 586 q 533 558 537 567 q 526 539 530 548 q 520 523 523 529 l 154 382 l 482 240 l 490 215 q 476 203 482 208 l 464 194 q 452 184 459 189 q 434 174 444 180 l 48 342 l 33 359 q 46 394 37 375 q 59 424 54 413 l 533 610 l 545 593 "},"t":{"x_min":40.390625,"x_max":437.09375,"ha":427,"o":"m 393 79 q 326 33 359 53 q 263 0 293 13 q 209 -20 233 -13 q 170 -28 185 -28 q 138 -17 153 -28 q 111 10 123 -7 q 92 53 99 28 q 86 108 86 78 q 86 133 86 121 q 88 160 87 146 q 91 190 89 174 q 96 224 93 205 l 147 552 l 50 552 l 40 573 l 108 614 l 157 614 l 161 637 q 169 683 165 665 q 179 714 174 702 q 192 734 185 726 q 207 749 199 742 l 276 798 l 295 781 q 285 759 290 774 q 273 720 280 745 q 260 653 267 695 l 254 614 l 423 614 l 437 594 q 418 573 430 585 q 393 552 406 562 q 368 533 380 541 q 350 521 357 524 q 339 536 346 530 q 320 545 332 542 q 290 550 308 549 q 247 552 272 552 l 245 552 l 197 241 q 193 213 195 228 q 190 185 191 199 q 189 161 189 172 q 189 142 189 149 q 204 80 189 100 q 238 61 219 61 q 296 71 262 61 q 381 104 330 81 l 393 79 "},"W":{"x_min":87.484375,"x_max":1131.953125,"ha":1065,"o":"m 1129 825 q 1091 817 1109 821 q 1060 808 1074 812 q 1038 797 1047 803 q 1026 783 1028 791 l 781 40 q 764 14 776 25 q 738 -3 752 3 q 711 -14 725 -10 q 689 -21 697 -18 l 577 641 l 316 40 q 296 13 309 24 q 267 -3 282 3 q 238 -14 252 -10 q 216 -21 224 -18 l 166 778 q 148 806 165 795 q 87 825 131 817 l 91 855 l 356 855 l 352 825 q 304 817 322 822 q 276 806 286 812 q 263 792 266 800 q 261 778 260 785 l 301 172 l 597 855 l 634 855 l 756 172 l 955 783 q 952 798 958 791 q 934 808 946 804 q 905 817 922 813 q 866 825 887 821 l 870 855 l 1131 855 l 1129 825 "},"v":{"x_min":11.484375,"x_max":606,"ha":619,"o":"m 606 578 q 591 513 606 556 q 541 401 576 470 q 450 233 507 332 q 310 1 394 134 q 296 -5 304 -2 q 279 -13 288 -9 q 261 -21 270 -17 q 246 -28 252 -25 l 224 -6 q 212 78 219 31 q 198 175 206 125 q 181 275 190 225 q 164 370 172 326 q 148 449 156 414 q 135 506 141 485 q 124 535 130 524 q 111 552 117 546 q 98 560 105 558 q 86 562 92 562 q 69 559 79 562 q 47 553 58 557 q 20 545 35 550 l 11 570 q 66 595 39 583 q 114 615 92 606 q 152 629 136 624 q 176 635 168 635 q 194 630 187 635 q 207 616 201 626 q 218 589 212 606 q 231 549 224 573 q 243 494 235 531 q 260 410 251 457 q 277 312 268 363 q 293 218 286 262 q 304 142 300 174 q 309 102 309 111 q 397 256 359 183 q 460 386 435 328 q 499 483 486 443 q 512 541 512 523 q 500 561 512 554 q 469 569 488 569 q 444 566 458 569 q 415 558 430 564 l 403 582 q 444 602 422 592 q 487 618 466 611 q 526 630 508 626 q 555 635 544 635 q 592 622 579 635 q 606 578 606 610 "},">":{"x_min":20.34375,"x_max":532.40625,"ha":570,"o":"m 532 424 q 520 390 527 409 q 506 359 514 372 l 33 174 l 20 190 q 26 206 23 197 q 32 225 29 216 q 39 244 35 235 q 45 260 42 254 l 411 401 l 83 543 l 75 568 q 89 580 84 575 l 101 589 q 114 599 107 594 q 131 610 121 603 l 517 441 l 532 424 "},"s":{"x_min":-2.625,"x_max":473.421875,"ha":482,"o":"m 473 572 q 446 544 459 556 q 421 522 433 531 q 401 507 410 512 q 387 502 392 502 q 368 514 378 502 q 346 540 358 526 q 317 566 333 554 q 278 578 300 578 q 240 570 259 578 q 207 551 222 563 q 184 520 193 538 q 175 480 175 502 q 197 430 175 457 q 275 379 220 404 q 330 349 302 366 q 380 310 358 332 q 416 260 402 288 q 430 195 430 231 q 405 108 430 149 q 344 36 381 67 q 260 -10 306 6 q 171 -28 214 -28 q 107 -18 139 -28 q 52 4 76 -9 q 12 35 27 18 q -2 66 -2 51 q 5 87 -2 73 q 24 116 13 102 q 47 140 36 129 q 66 150 59 150 q 76 142 71 150 q 89 121 81 133 q 107 93 97 108 q 135 66 118 79 q 173 45 151 53 q 224 37 195 37 q 269 46 248 37 q 306 70 291 55 q 331 106 322 85 q 341 151 341 127 q 330 198 341 177 q 301 237 319 220 q 259 269 283 254 q 210 295 236 283 q 150 329 174 312 q 110 364 125 346 q 89 401 95 381 q 83 442 83 421 q 104 520 83 485 q 158 581 125 556 q 232 621 191 607 q 314 635 274 635 q 372 626 348 635 q 414 607 396 618 q 445 586 432 597 q 473 572 459 576 "},"B":{"x_min":0.609375,"x_max":634,"ha":688,"o":"m 374 818 q 335 817 353 818 q 300 817 317 817 l 256 492 l 278 492 q 370 499 325 492 q 449 526 414 506 q 503 580 483 546 q 524 669 524 615 q 509 739 524 710 q 472 785 494 767 q 423 810 450 803 q 374 818 397 818 m 351 440 q 296 437 321 440 q 248 431 271 434 l 199 70 q 206 57 197 65 q 235 47 219 51 q 267 40 250 42 q 300 37 283 38 q 330 36 316 36 q 411 54 375 36 q 473 103 447 73 q 513 173 499 134 q 528 254 528 212 q 518 321 528 288 q 487 381 508 354 q 432 423 466 407 q 351 440 399 440 m 634 278 q 608 156 634 211 q 538 62 582 101 q 436 1 494 23 q 313 -21 377 -21 q 280 -20 299 -21 q 240 -17 261 -19 q 196 -14 219 -16 q 151 -10 173 -12 q 45 0 100 -6 l 0 0 l 4 29 q 73 49 47 38 q 100 70 98 60 l 201 810 q 145 801 170 805 q 96 791 120 796 l 96 832 q 159 849 127 841 q 228 862 192 856 q 305 871 264 868 q 392 875 345 875 q 491 863 447 875 q 565 829 535 851 q 613 776 596 807 q 630 705 630 744 q 618 637 630 670 q 587 575 607 603 q 540 525 567 547 q 480 490 512 503 q 542 463 514 482 q 591 417 571 444 q 622 354 611 389 q 634 278 634 318 "},"?":{"x_min":108.703125,"x_max":548,"ha":551,"o":"m 300 103 q 292 60 300 82 q 272 20 285 38 q 240 -9 259 2 q 198 -21 222 -21 q 157 -2 173 -21 q 142 46 142 15 q 149 87 142 65 q 171 126 157 108 q 203 155 184 143 q 243 167 221 167 q 284 149 269 167 q 300 103 300 131 m 548 804 q 530 700 548 745 q 486 619 513 655 q 428 551 460 582 q 368 486 396 520 q 317 415 339 453 q 287 329 295 378 l 279 264 q 256 248 266 254 q 229 236 246 242 l 213 250 l 217 329 q 234 412 217 374 q 276 485 251 450 q 329 552 301 520 q 382 617 358 584 q 422 687 406 651 q 439 765 439 723 q 409 869 439 833 q 320 906 379 906 q 271 893 293 906 q 236 858 249 880 q 219 806 223 836 q 221 745 215 777 q 194 734 206 738 q 171 726 182 729 q 148 721 160 723 q 122 718 137 720 l 108 739 q 127 824 108 783 q 181 898 146 865 q 267 950 217 930 q 379 970 316 970 q 454 957 422 970 q 506 922 486 944 q 537 869 527 899 q 548 804 548 839 "},"H":{"x_min":0,"x_max":872.1875,"ha":838,"o":"m 392 825 q 323 804 349 816 q 295 783 297 793 l 254 478 l 631 478 l 673 783 q 653 804 674 791 q 590 825 632 816 l 592 855 l 872 855 l 868 825 q 799 804 825 816 q 772 783 773 793 l 673 70 q 693 50 672 62 q 758 29 714 38 l 754 0 l 476 0 l 480 29 q 548 49 523 38 q 575 70 573 60 l 622 416 l 245 416 l 198 70 q 218 50 196 62 q 282 29 239 38 l 278 0 l 0 0 l 4 29 q 72 49 46 38 q 99 70 98 61 l 198 783 q 179 804 200 791 q 113 825 158 816 l 118 855 l 396 855 l 392 825 "},"c":{"x_min":37,"x_max":551.421875,"ha":539,"o":"m 551 552 q 521 531 537 542 q 490 510 505 519 q 462 495 475 501 q 440 489 449 489 q 421 500 432 489 q 396 526 411 512 q 363 552 381 540 q 323 564 345 564 q 266 549 292 564 q 219 508 240 534 q 182 450 198 483 q 156 382 166 417 q 140 310 145 346 q 135 242 135 274 q 144 163 135 198 q 172 102 154 127 q 214 64 189 78 q 267 51 238 51 q 299 55 280 51 q 342 70 318 59 q 398 100 367 81 q 465 149 428 119 q 476 134 470 141 q 486 121 482 126 q 391 43 433 73 q 315 -1 349 14 q 253 -22 280 -17 q 201 -28 225 -28 q 149 -16 178 -28 q 96 23 121 -4 q 54 99 71 52 q 37 218 37 147 q 46 312 37 263 q 76 407 55 360 q 132 495 98 453 q 216 571 166 537 q 258 594 235 583 q 306 615 281 606 q 355 629 331 624 q 400 635 379 635 q 453 623 430 635 q 495 597 476 611 q 527 569 513 582 q 551 552 541 556 "},"&":{"x_min":42.59375,"x_max":864.0625,"ha":807,"o":"m 349 766 q 348 685 344 727 q 364 597 353 642 q 440 649 410 624 q 490 697 471 674 q 519 743 510 721 q 533 787 529 765 q 536 835 537 812 q 526 874 535 857 q 501 901 518 891 q 459 911 484 911 q 416 898 435 911 q 383 865 397 885 q 361 819 370 845 q 349 766 353 792 m 302 57 q 403 74 356 57 q 488 120 449 91 q 435 197 461 155 q 383 284 408 238 q 336 379 358 330 q 298 478 314 427 q 234 422 261 449 q 189 368 207 395 q 160 315 170 342 q 145 259 149 288 q 150 174 139 212 q 183 110 161 137 q 237 70 206 84 q 302 57 268 57 m 864 507 q 829 472 846 486 q 796 447 812 458 q 772 458 786 453 q 745 466 758 462 q 718 472 731 470 q 694 475 704 474 q 701 451 699 462 q 704 425 704 439 q 704 394 705 411 q 699 354 702 377 q 668 255 693 307 q 604 154 643 203 q 635 117 620 135 q 665 86 651 100 q 712 57 686 64 q 775 59 738 50 l 776 30 q 681 -8 718 4 q 630 -21 644 -21 q 589 4 617 -21 q 524 74 560 29 q 407 5 471 31 q 273 -21 344 -21 q 170 -3 216 -21 q 94 48 124 14 q 50 132 63 82 q 46 245 37 182 q 69 323 50 284 q 118 400 88 362 q 189 474 148 437 q 279 544 229 510 q 264 638 267 592 q 266 728 260 684 q 296 829 274 783 q 350 911 318 876 q 422 964 383 945 q 502 984 461 984 q 566 969 541 984 q 605 930 592 954 q 623 875 619 906 q 622 810 627 844 q 559 679 611 740 q 429 568 507 618 l 382 538 q 419 448 398 493 q 464 360 440 404 q 515 276 489 317 q 568 201 541 236 q 603 264 590 231 q 622 326 617 296 q 622 386 627 358 q 605 434 617 414 q 577 466 594 454 q 543 478 561 478 l 531 497 q 554 516 540 506 q 581 532 568 526 l 852 532 l 864 507 "},"I":{"x_min":13.5625,"x_max":409.640625,"ha":389,"o":"m 405 825 q 337 804 362 816 q 309 783 311 793 l 210 70 q 230 50 209 62 q 295 29 251 38 l 291 0 l 13 0 l 18 29 q 86 49 61 38 q 113 70 111 61 l 210 783 q 191 804 212 791 q 127 825 170 816 l 132 855 l 409 855 l 405 825 "},"G":{"x_min":51,"x_max":721.359375,"ha":728,"o":"m 717 366 q 663 340 680 355 q 644 310 646 326 q 637 262 642 292 q 629 202 633 233 q 622 144 625 172 q 616 104 618 117 q 526 38 565 63 q 454 0 486 13 q 395 -16 422 -12 q 340 -21 368 -21 q 232 1 284 -21 q 139 68 180 24 q 75 175 99 111 q 51 320 51 239 q 66 450 51 385 q 108 576 81 516 q 174 687 136 636 q 258 775 212 738 q 386 847 316 820 q 538 875 457 875 q 582 870 558 875 q 629 856 606 865 q 675 834 653 847 q 715 805 698 821 q 712 790 720 802 q 692 765 705 779 q 666 737 680 751 q 643 716 652 724 l 624 720 q 587 756 606 741 q 544 778 567 770 q 495 790 521 787 q 439 794 469 794 q 376 776 413 794 q 302 728 339 758 q 240 656 268 701 q 193 559 213 611 q 163 452 174 506 q 153 350 153 397 q 175 224 153 277 q 231 136 197 171 q 308 83 266 100 q 393 67 351 67 q 465 77 430 67 q 524 106 500 88 l 551 310 q 549 324 552 317 q 530 337 545 330 q 485 351 515 344 q 404 366 455 357 l 408 395 l 721 395 l 717 366 "},"(":{"x_min":72.609375,"x_max":478.140625,"ha":410,"o":"m 478 1057 q 386 967 431 1024 q 304 832 342 910 q 237 659 266 755 q 193 455 208 564 q 180 260 179 356 q 195 81 181 165 q 237 -71 210 -3 q 304 -183 265 -140 l 279 -214 q 171 -114 215 -180 q 102 36 127 -49 q 73 224 78 122 q 84 434 69 326 q 134 649 100 545 q 218 839 168 752 q 329 990 267 925 q 462 1088 391 1054 l 478 1057 "},"`":{"x_min":171.59375,"x_max":383.203125,"ha":411,"o":"m 383 710 q 361 699 369 702 q 341 696 353 696 l 171 957 l 193 982 q 213 984 201 983 q 240 987 226 986 q 267 989 254 988 q 288 990 280 990 l 383 710 "},"U":{"x_min":113.921875,"x_max":872.234375,"ha":832,"o":"m 868 825 q 801 804 825 816 q 776 783 777 793 l 715 347 q 674 189 703 258 q 601 73 645 120 q 501 3 558 27 q 377 -21 444 -21 q 275 -4 322 -21 q 195 45 229 12 q 144 125 162 78 q 126 236 126 173 q 132 314 126 272 l 198 783 q 178 804 199 791 q 113 825 157 816 l 118 855 l 396 855 l 392 825 q 323 804 349 816 q 295 783 297 793 l 236 345 q 232 306 233 326 q 232 269 232 286 q 243 182 232 221 q 277 116 255 144 q 334 73 300 88 q 412 58 368 58 q 493 79 456 58 q 559 137 531 101 q 606 220 588 173 q 632 318 625 267 l 694 783 q 676 804 695 791 q 613 825 657 816 l 617 855 l 872 855 l 868 825 "},"F":{"x_min":0,"x_max":640.25,"ha":604,"o":"m 640 837 q 631 799 636 820 q 620 757 626 778 q 607 717 613 736 q 594 685 600 698 l 567 685 q 568 737 569 716 q 562 770 567 757 q 549 787 557 782 q 529 793 541 793 l 296 793 l 255 498 l 474 498 l 490 479 q 474 459 482 469 q 457 439 465 449 q 439 421 448 429 q 423 406 430 412 q 370 436 400 429 q 295 444 340 444 l 248 444 l 197 70 q 219 52 196 62 q 301 29 242 42 l 297 0 l 0 0 l 4 29 q 72 49 46 38 q 99 70 98 61 l 198 783 q 179 804 200 791 q 113 825 158 816 l 118 855 l 623 855 l 640 837 "},"r":{"x_min":26.84375,"x_max":520.6875,"ha":493,"o":"m 520 576 q 502 550 512 565 q 483 519 492 534 q 464 495 473 505 q 448 485 455 485 q 426 492 435 485 q 409 508 417 499 q 394 524 402 517 q 376 532 386 532 q 335 507 358 532 q 288 444 311 483 q 243 357 265 405 q 207 259 222 308 q 194 203 200 234 q 184 139 188 172 q 177 75 179 107 q 177 16 175 43 q 154 6 168 12 q 127 -5 141 0 q 100 -17 113 -11 q 79 -28 87 -23 l 57 -6 q 77 92 67 41 q 95 195 86 144 q 110 295 103 246 q 122 386 117 344 q 130 461 127 428 q 134 515 134 495 q 131 540 134 531 q 125 553 129 549 q 116 559 121 558 q 106 561 111 561 q 87 558 99 561 q 64 552 76 556 q 36 544 51 549 l 26 569 q 84 594 55 582 q 138 615 112 606 q 182 629 163 624 q 209 635 201 635 q 224 631 218 635 q 232 619 229 628 q 235 596 234 611 q 236 557 236 580 q 233 531 236 549 q 229 493 231 514 q 223 452 226 472 q 218 419 220 432 q 279 528 250 486 q 335 594 309 570 q 385 626 361 618 q 430 635 408 635 q 452 628 442 635 q 472 611 462 621 q 494 592 482 602 q 520 576 505 582 "},":":{"x_min":35,"x_max":260,"ha":278,"o":"m 260 587 q 252 545 260 567 q 232 505 245 523 q 201 476 219 488 q 160 465 183 465 q 117 483 132 465 q 103 531 103 501 q 110 572 103 550 q 132 611 118 593 q 164 640 145 628 q 204 652 182 652 q 244 634 229 652 q 260 587 260 617 m 192 103 q 184 60 192 82 q 164 20 177 38 q 133 -9 151 2 q 91 -21 114 -21 q 49 -2 64 -21 q 35 46 35 15 q 42 87 35 65 q 64 126 50 108 q 96 155 78 143 q 136 167 114 167 q 176 149 161 167 q 192 103 192 131 "},"x":{"x_min":-19.671875,"x_max":605.65625,"ha":611,"o":"m 594 48 q 543 13 565 28 q 502 -10 520 0 q 470 -23 484 -19 q 442 -28 455 -28 q 401 -6 422 -28 q 361 50 381 14 q 321 132 341 86 q 282 229 301 178 q 246 182 266 208 q 203 126 226 155 q 156 62 181 96 q 108 -6 132 29 q 52 -15 83 -10 q -4 -28 21 -20 l -19 -4 q 47 58 11 22 q 120 134 83 94 q 192 213 157 173 q 259 290 228 254 q 220 391 239 342 q 182 477 201 440 q 146 538 164 515 q 112 561 128 561 q 92 558 106 561 q 64 552 78 555 q 27 543 47 548 l 18 569 q 72 593 46 582 q 120 614 99 605 q 157 629 142 624 q 180 635 172 635 q 217 611 198 635 q 256 550 236 588 q 296 463 276 512 q 337 361 316 413 q 391 429 364 394 q 438 493 417 464 q 471 543 458 523 q 483 568 483 563 q 481 580 483 575 q 472 588 479 586 q 452 591 465 591 q 417 590 439 592 l 416 618 q 495 631 461 627 q 547 635 530 635 q 592 624 579 635 q 605 599 605 613 q 589 562 605 585 q 542 502 573 538 q 465 416 512 465 q 360 300 419 366 q 397 206 379 252 q 434 127 416 161 q 468 71 451 92 q 501 51 485 51 q 537 55 516 51 q 583 73 558 60 l 594 48 "},"*":{"x_min":-4.0625,"x_max":518.15625,"ha":492,"o":"m 281 805 l 465 938 q 478 928 471 934 q 494 917 486 923 q 508 904 501 911 q 518 893 514 898 l 515 865 l 295 769 l 473 682 q 465 642 470 665 q 455 604 461 619 l 430 588 l 271 733 l 265 512 q 248 503 257 508 q 229 494 238 498 q 210 486 219 489 q 194 481 201 482 l 173 493 l 232 732 l 48 599 q 19 621 35 608 q -4 644 3 634 l 0 673 l 217 768 l 40 856 q 43 874 42 864 q 47 896 45 885 q 52 916 50 907 q 58 933 54 926 l 83 949 l 241 805 l 248 1026 q 264 1035 255 1030 q 283 1044 274 1040 q 302 1053 293 1049 q 319 1059 311 1056 l 341 1044 l 281 805 "},"V":{"x_min":94.265625,"x_max":885.078125,"ha":823,"o":"m 880 825 q 812 808 837 817 q 777 781 786 800 l 438 40 q 418 14 432 25 q 389 -3 404 3 q 359 -14 373 -10 q 336 -21 344 -18 l 173 781 q 152 809 170 798 q 94 825 134 820 l 98 855 l 368 855 l 364 825 q 295 812 315 822 q 279 781 274 802 l 408 132 l 706 781 q 694 809 716 800 q 623 825 672 819 l 628 855 l 885 855 l 880 825 "},"h":{"x_min":58.75,"x_max":657.375,"ha":686,"o":"m 657 48 q 553 -7 594 12 q 483 -28 512 -28 q 449 -6 464 -28 q 434 51 434 14 q 438 95 434 63 q 449 168 442 126 q 463 258 455 210 q 476 348 470 306 q 487 425 483 391 q 492 475 492 459 q 489 518 492 500 q 482 546 487 535 q 468 561 477 557 q 444 566 459 566 q 413 555 435 566 q 362 523 391 544 q 302 470 333 502 q 246 394 271 438 q 215 313 227 362 q 194 204 203 265 q 184 138 187 166 q 179 87 180 109 q 177 48 177 65 q 178 16 176 31 q 156 6 169 12 q 128 -5 142 0 q 102 -17 115 -11 q 81 -28 89 -23 l 58 -6 q 74 83 64 29 q 93 202 83 137 q 115 339 104 267 q 137 482 126 410 q 158 622 148 554 q 175 747 167 690 q 186 848 182 805 q 191 912 191 891 q 188 937 191 928 q 182 951 186 946 q 173 957 178 955 q 163 958 168 958 q 143 955 156 958 q 117 948 131 952 q 85 940 102 944 l 77 966 q 134 990 105 979 q 188 1011 163 1002 q 232 1025 213 1020 q 260 1031 251 1031 q 289 1018 279 1031 q 300 975 300 1006 q 295 921 300 959 q 285 834 291 883 q 270 730 279 786 q 254 622 262 674 q 240 527 247 571 q 229 459 233 484 q 307 542 268 508 q 382 596 346 575 q 452 625 419 616 q 516 635 486 635 q 577 608 559 635 q 596 515 596 581 q 591 456 596 491 q 580 380 587 421 q 567 296 574 339 q 553 213 559 252 q 542 142 546 174 q 538 91 538 110 q 546 59 538 68 q 562 51 554 51 q 601 57 581 51 q 647 73 622 62 l 657 48 "},"0":{"x_min":32,"x_max":544,"ha":558,"o":"m 440 533 q 430 631 440 588 q 405 702 421 673 q 368 745 389 730 q 323 760 347 760 q 256 734 285 760 q 206 668 227 709 q 171 576 185 627 q 149 474 158 525 q 138 376 141 423 q 135 298 135 330 q 166 118 135 178 q 252 58 198 58 q 321 84 292 58 q 371 152 350 110 q 405 247 391 194 q 426 352 418 299 q 436 453 433 405 q 440 533 440 500 m 544 531 q 539 444 544 491 q 525 349 535 398 q 498 252 515 300 q 455 160 481 203 q 407 89 432 122 q 353 31 382 56 q 289 -6 323 7 q 216 -21 255 -21 q 134 2 168 -21 q 77 66 99 25 q 43 164 54 107 q 32 286 32 220 q 36 371 32 325 q 50 463 40 416 q 76 559 60 510 q 116 652 92 607 q 163 724 137 690 q 218 783 188 758 q 282 823 248 808 q 357 838 317 838 q 440 814 405 838 q 498 751 475 791 q 532 654 521 710 q 544 531 544 597 "},".":{"x_min":35,"x_max":192,"ha":278,"o":"m 192 103 q 184 60 192 82 q 164 20 177 38 q 133 -9 151 2 q 91 -21 114 -21 q 49 -2 64 -21 q 35 46 35 15 q 42 87 35 65 q 64 126 50 108 q 96 155 78 143 q 136 167 114 167 q 176 149 161 167 q 192 103 192 131 "},"@":{"x_min":46.734375,"x_max":1025.890625,"ha":1080,"o":"m 786 571 l 785 569 q 777 547 780 560 q 770 515 773 534 q 751 415 760 466 q 736 318 742 364 q 726 238 729 273 q 723 189 723 204 q 726 126 723 150 q 735 88 729 101 q 748 69 741 74 q 764 64 756 64 q 807 86 781 64 q 859 147 833 108 q 906 237 885 185 q 936 345 927 288 q 942 487 948 422 q 918 605 937 552 q 867 698 898 658 q 797 767 836 739 q 711 808 757 794 q 614 823 664 823 q 495 804 551 823 q 390 752 439 785 q 303 673 342 719 q 233 575 263 628 q 183 462 203 521 q 154 341 163 402 q 160 123 137 218 q 237 -38 184 27 q 368 -138 290 -104 q 538 -173 446 -173 q 639 -161 589 -173 q 733 -131 689 -149 q 813 -92 777 -113 q 870 -54 848 -72 l 881 -92 q 816 -146 855 -118 q 727 -198 777 -175 q 619 -238 678 -222 q 494 -254 560 -254 q 292 -214 382 -254 q 144 -99 203 -174 q 60 79 85 -25 q 54 315 36 185 q 92 465 65 391 q 161 603 120 538 q 257 723 203 668 q 373 819 310 779 q 505 881 435 859 q 650 904 576 904 q 816 868 741 904 q 942 765 891 833 q 1014 598 993 697 q 1017 372 1035 499 q 989 260 1009 313 q 943 164 970 208 q 884 84 916 119 q 819 23 852 48 q 753 -14 786 -1 q 695 -28 721 -28 q 670 -19 682 -28 q 649 12 659 -11 q 633 76 639 35 q 627 183 627 117 q 587 116 610 153 q 540 46 565 79 q 487 -6 514 14 q 431 -28 460 -28 q 383 -15 408 -28 q 336 25 358 -2 q 301 98 315 54 q 288 206 288 143 q 298 311 288 260 q 330 409 308 362 q 387 497 352 456 q 469 571 421 538 q 509 594 487 583 q 554 615 530 606 q 600 629 577 624 q 645 635 623 635 q 695 622 672 635 q 739 595 719 609 q 772 616 755 606 q 807 635 790 626 l 821 611 q 799 591 807 600 q 786 571 791 583 l 786 571 m 639 291 q 649 356 643 322 q 660 421 654 390 q 670 478 666 452 q 677 518 675 504 q 656 534 667 526 q 632 549 645 542 q 605 559 619 555 q 576 564 591 564 q 518 548 544 564 q 470 508 491 533 q 431 450 448 483 q 403 384 414 418 q 386 316 392 350 q 380 257 380 283 q 387 177 380 213 q 407 117 394 142 q 437 78 420 92 q 474 65 454 65 q 511 85 491 65 q 554 139 532 106 q 598 211 576 171 q 639 291 620 251 "},"f":{"x_min":-67.828125,"x_max":612.4375,"ha":379,"o":"m 612 951 q 581 929 598 941 q 550 907 565 917 q 521 891 534 897 q 499 885 507 885 q 482 896 491 885 q 462 923 473 908 q 437 949 451 937 q 404 961 423 961 q 358 945 378 961 q 324 905 339 930 q 298 846 309 879 q 280 778 287 813 q 267 708 272 743 q 259 645 263 674 l 255 614 l 429 614 l 442 594 q 424 573 436 585 q 400 552 413 562 q 375 533 387 541 q 356 521 363 524 q 346 536 353 530 q 326 545 339 542 q 296 550 314 549 q 252 552 278 552 l 248 552 l 200 130 q 169 -13 191 55 q 116 -142 148 -83 q 42 -250 84 -202 q -50 -329 0 -298 l -67 -286 q -6 -226 -33 -267 q 41 -133 21 -186 q 75 -20 62 -80 q 95 93 89 38 l 148 552 l 46 552 l 35 573 l 104 614 l 155 614 q 171 718 162 668 q 197 813 180 768 q 241 897 213 858 q 311 967 268 936 q 346 992 329 980 q 381 1012 363 1003 q 417 1026 398 1021 q 457 1031 436 1031 q 511 1019 486 1031 q 554 994 535 1008 q 587 967 573 980 q 612 951 602 954 "},";":{"x_min":-11.765625,"x_max":260,"ha":278,"o":"m 260 587 q 252 545 260 567 q 232 505 245 523 q 201 476 219 488 q 160 465 183 465 q 117 483 132 465 q 103 531 103 501 q 111 572 103 550 q 132 611 118 593 q 164 640 146 628 q 204 652 182 652 q 244 634 229 652 q 260 587 260 617 m 206 69 q 198 28 206 51 q 176 -20 190 5 q 144 -73 162 -46 q 104 -125 125 -100 q 58 -171 82 -150 q 11 -207 35 -192 l -11 -183 q 92 0 92 -73 q 88 23 92 12 q 76 43 84 35 q 53 55 67 52 q 18 56 39 59 l 12 87 q 40 107 20 95 q 83 129 60 118 q 128 148 106 140 q 161 155 151 155 q 182 141 174 148 q 195 126 190 135 q 203 103 201 117 q 206 69 206 90 "},"i":{"x_min":47.875,"x_max":327,"ha":343,"o":"m 309 48 q 251 15 277 29 q 205 -8 226 1 q 167 -23 184 -18 q 135 -28 150 -28 q 98 -6 112 -28 q 85 51 85 14 q 90 109 85 71 q 102 192 95 146 q 119 288 110 238 q 135 383 127 338 q 147 463 142 428 q 153 515 153 499 q 150 540 153 531 q 145 553 148 549 q 136 559 142 558 q 125 560 131 560 q 108 558 119 560 q 85 552 97 556 q 57 544 72 549 l 47 569 q 104 594 76 582 q 157 615 132 606 q 200 629 181 624 q 227 635 218 635 q 254 622 246 635 q 262 577 262 609 q 256 519 262 558 q 243 433 251 481 q 226 334 235 386 q 209 235 217 282 q 196 149 201 187 q 191 91 191 110 q 195 60 191 70 q 211 51 199 51 q 251 56 232 51 q 298 73 271 61 l 309 48 m 327 855 q 321 818 327 836 q 304 784 315 799 q 278 759 293 769 q 243 750 262 750 q 211 762 222 750 q 200 797 200 774 q 206 834 200 815 q 222 868 212 853 q 248 894 233 884 q 283 904 264 904 q 315 891 304 904 q 327 855 327 878 "},"6":{"x_min":46,"x_max":541.875,"ha":558,"o":"m 305 447 q 230 428 266 447 q 155 365 193 410 q 148 309 150 337 q 146 253 146 281 q 181 101 146 151 q 279 52 217 52 q 327 63 306 52 q 364 93 349 74 q 391 136 380 112 q 408 186 402 161 q 417 238 414 212 q 421 286 421 264 q 410 365 421 334 q 383 414 400 396 q 346 439 366 432 q 305 447 326 447 m 541 806 q 408 757 468 791 q 302 675 349 722 q 223 568 256 627 q 172 444 191 509 q 262 505 219 488 q 341 522 305 522 q 472 470 428 522 q 517 327 517 418 q 508 250 517 290 q 483 171 500 210 q 443 97 466 132 q 389 36 419 63 q 322 -5 358 10 q 244 -21 285 -21 q 163 -1 200 -21 q 101 52 127 17 q 60 136 75 87 q 46 244 46 185 q 61 387 46 317 q 106 521 76 457 q 177 639 135 584 q 274 737 220 694 q 395 808 329 779 q 536 847 461 836 l 541 806 "},"A":{"x_min":-23.734375,"x_max":726.375,"ha":778,"o":"m 251 301 l 154 75 q 165 45 145 54 q 237 29 185 35 l 233 0 l -23 0 l -19 29 q 48 46 23 37 q 83 75 74 55 l 413 833 q 434 849 422 841 q 459 866 446 858 q 484 881 472 874 q 505 893 496 888 l 651 75 q 656 58 653 65 q 668 45 660 51 q 690 35 676 40 q 726 29 704 31 l 723 0 l 462 0 l 465 29 q 534 43 513 32 q 551 75 555 53 l 512 301 l 251 301 m 501 363 l 437 731 l 278 363 l 501 363 "},"n":{"x_min":31.84375,"x_max":659.359375,"ha":686,"o":"m 659 48 q 554 -7 597 12 q 485 -28 511 -28 q 449 -6 462 -28 q 436 51 436 14 q 440 95 436 63 q 451 168 444 126 q 466 258 458 210 q 481 348 474 305 q 492 425 488 391 q 497 474 497 459 q 486 546 497 526 q 445 567 475 567 q 414 556 436 567 q 364 523 392 545 q 306 469 336 501 q 251 393 276 436 q 220 315 232 360 q 197 204 208 269 q 183 100 186 143 q 181 16 180 56 q 159 6 172 12 q 132 -5 146 0 q 105 -17 118 -11 q 84 -28 92 -23 l 62 -6 q 81 90 71 37 q 98 194 90 142 q 114 298 107 247 q 127 392 122 349 q 135 468 132 435 q 139 516 139 500 q 137 541 139 532 q 132 554 135 550 q 124 560 129 559 q 113 562 120 562 q 95 559 107 562 q 71 553 84 556 q 41 544 57 549 l 31 570 q 89 594 60 583 q 143 615 117 606 q 187 629 168 624 q 214 635 206 635 q 229 631 223 635 q 237 620 234 628 q 240 597 239 612 q 241 558 241 582 q 240 538 241 550 q 238 510 239 525 q 236 482 237 495 q 234 460 234 468 q 307 539 270 506 q 380 593 344 572 q 449 625 416 615 q 513 635 483 635 q 551 628 534 635 q 578 608 567 622 q 595 572 589 594 q 601 516 601 549 q 596 457 601 493 q 585 381 592 422 q 570 297 578 340 q 555 214 562 253 q 544 142 548 174 q 540 91 540 110 q 546 59 540 68 q 564 51 552 51 q 600 56 580 51 q 649 73 620 62 l 659 48 "},"O":{"x_min":61,"x_max":736,"ha":757,"o":"m 634 512 q 621 620 634 569 q 585 708 609 670 q 527 767 562 745 q 448 790 493 790 q 355 770 396 790 q 283 716 315 750 q 229 639 251 683 q 192 547 206 595 q 170 452 177 500 q 164 360 164 403 q 177 243 164 297 q 214 151 190 190 q 273 90 239 112 q 349 68 307 68 q 443 89 401 68 q 516 144 485 110 q 570 225 547 179 q 606 320 592 271 q 627 420 621 370 q 634 512 634 470 m 736 525 q 728 427 736 476 q 704 329 720 377 q 665 236 688 281 q 611 152 641 191 q 550 84 582 116 q 481 29 518 52 q 405 -7 445 6 q 319 -21 364 -21 q 205 6 254 -21 q 125 82 157 34 q 76 194 92 130 q 61 328 61 257 q 68 419 61 371 q 91 515 76 467 q 126 608 105 563 q 174 690 147 653 q 236 762 203 728 q 306 820 269 795 q 387 860 344 845 q 478 875 430 875 q 593 847 544 875 q 673 771 642 819 q 720 659 705 723 q 736 525 736 596 "},"3":{"x_min":-7.625,"x_max":498,"ha":558,"o":"m 498 679 q 485 611 498 642 q 452 553 473 579 q 403 507 431 527 q 341 473 374 487 q 398 453 372 469 q 442 411 424 437 q 470 355 460 386 q 481 290 481 324 q 460 170 481 226 q 400 70 439 113 q 307 3 362 28 q 183 -21 252 -21 q 89 3 135 -21 q -7 80 43 27 l 18 126 q 65 88 44 103 q 104 64 85 73 q 143 52 123 55 q 186 49 162 49 q 270 67 234 49 q 331 116 307 85 q 368 188 355 148 q 381 272 381 228 q 369 339 381 311 q 338 386 357 368 q 294 413 319 405 q 246 422 270 422 l 233 422 q 227 422 230 422 q 219 420 224 421 q 206 417 215 419 l 201 458 q 277 486 241 470 q 340 525 313 502 q 384 582 368 549 q 400 660 400 615 q 394 701 400 681 q 376 738 388 722 q 344 764 364 754 q 298 774 325 774 q 255 764 274 774 q 221 740 235 755 q 200 703 208 724 q 194 660 193 683 q 151 642 171 648 q 105 633 131 635 l 91 654 q 118 715 95 683 q 174 774 140 747 q 250 819 208 801 q 336 838 292 838 q 407 824 376 838 q 458 789 438 811 q 488 738 478 767 q 498 679 498 709 "},"]":{"x_min":-58.328125,"x_max":405.578125,"ha":397,"o":"m 222 -228 l -38 -228 l -58 -208 q -45 -175 -52 -192 q -33 -150 -38 -158 l 144 -150 l 307 1009 l 134 1009 l 115 1026 q 126 1057 119 1041 q 140 1085 134 1073 l 405 1085 l 222 -228 "},"m":{"x_min":27.84375,"x_max":958.015625,"ha":1003,"o":"m 958 48 q 853 -7 894 12 q 783 -28 812 -28 q 749 -6 763 -28 q 736 51 736 14 q 740 94 736 63 q 752 165 745 124 q 767 253 759 206 q 782 345 775 300 q 794 427 789 389 q 799 487 799 465 q 790 548 799 530 q 769 566 782 566 q 737 556 756 566 q 693 528 717 547 q 643 478 670 509 q 590 407 616 448 q 565 360 575 383 q 549 312 555 337 q 538 260 542 287 q 527 200 533 232 q 516 94 518 138 q 515 17 513 50 q 492 6 506 12 q 464 -5 479 1 q 437 -16 450 -11 q 415 -27 424 -22 l 393 -6 q 422 137 408 62 q 447 278 436 211 q 464 397 458 345 q 471 475 471 450 q 460 546 471 526 q 430 566 449 566 q 403 557 422 566 q 361 529 385 548 q 311 480 337 510 q 258 409 284 450 q 234 364 244 387 q 217 315 224 341 q 204 261 210 290 q 193 200 198 233 q 179 94 182 139 q 177 17 176 50 q 155 7 168 12 q 128 -4 142 1 q 101 -16 114 -10 q 80 -27 88 -22 l 58 -6 q 77 93 67 41 q 94 196 86 145 q 110 297 103 248 q 123 388 118 346 q 131 463 128 430 q 135 516 135 496 q 132 540 135 531 q 127 555 130 550 q 118 561 123 560 q 108 563 113 563 q 89 560 101 563 q 65 554 78 557 q 35 545 51 550 l 27 571 q 84 595 56 583 q 137 615 113 606 q 180 629 162 624 q 206 635 198 635 q 222 631 216 635 q 231 619 228 628 q 235 596 234 611 q 237 557 237 580 q 236 538 237 549 q 234 513 235 527 q 231 486 233 500 q 229 460 229 472 q 304 541 269 507 q 370 595 339 574 q 431 625 402 616 q 487 635 459 635 q 529 624 512 635 q 556 597 546 614 q 569 559 565 580 q 574 515 574 538 q 573 492 574 502 q 571 466 572 481 q 643 544 610 512 q 706 596 677 576 q 761 625 734 616 q 813 635 787 635 q 849 628 832 635 q 877 607 865 622 q 894 570 888 593 q 901 515 901 548 q 896 453 901 489 q 885 376 891 417 q 870 293 878 335 q 855 212 862 250 q 844 142 849 173 q 840 91 840 110 q 846 60 840 68 q 865 53 853 53 q 904 58 884 53 q 951 74 923 63 l 958 48 "},"9":{"x_min":45.78125,"x_max":544,"ha":558,"o":"m 284 376 q 371 401 334 376 q 437 469 408 427 q 440 517 439 493 q 442 566 442 541 q 431 659 442 621 q 405 721 421 697 q 368 755 389 744 q 327 766 348 766 q 272 754 296 766 q 231 724 249 743 q 200 681 213 706 q 180 629 188 656 q 169 574 172 602 q 166 521 166 546 q 177 449 166 477 q 207 404 189 420 q 245 382 224 388 q 284 376 266 376 m 544 584 q 511 364 544 468 q 416 177 479 259 q 261 40 353 95 q 51 -29 169 -13 l 45 10 q 188 64 125 29 q 298 148 251 99 q 375 257 344 197 q 422 389 406 318 q 343 325 387 349 q 248 301 299 301 q 175 315 208 301 q 119 354 142 329 q 83 415 96 380 q 71 491 71 450 q 81 570 71 529 q 109 648 91 610 q 154 721 127 687 q 213 781 180 755 q 283 822 245 807 q 362 837 320 837 q 432 821 399 837 q 490 775 465 806 q 529 696 514 744 q 544 584 544 648 "},"l":{"x_min":69,"x_max":295,"ha":326,"o":"m 295 48 q 236 13 261 27 q 190 -10 211 -1 q 152 -23 169 -19 q 117 -28 134 -28 q 83 -7 98 -28 q 69 52 69 12 q 74 110 69 69 q 87 207 79 151 q 105 331 95 263 q 127 469 116 398 q 148 609 137 539 q 166 737 158 678 q 179 843 174 797 q 185 912 185 889 q 181 937 185 928 q 174 951 178 946 q 163 957 169 955 q 150 958 156 958 q 133 955 145 958 q 109 948 121 952 q 80 940 96 944 l 70 966 q 127 990 98 979 q 180 1011 156 1002 q 224 1025 205 1020 q 252 1031 243 1031 q 282 1018 271 1031 q 294 975 294 1006 q 288 902 294 948 q 275 795 283 855 q 256 666 267 735 q 235 526 245 597 q 213 388 224 456 q 194 261 202 320 q 181 158 186 203 q 176 91 176 114 q 182 59 176 68 q 199 51 188 51 q 235 56 215 51 q 286 73 256 62 l 295 48 "},"8":{"x_min":23,"x_max":528,"ha":559,"o":"m 195 637 q 206 590 195 611 q 237 553 218 570 q 281 521 256 536 q 333 491 306 506 q 374 524 355 506 q 406 562 393 541 q 428 607 420 582 q 436 661 436 631 q 404 745 436 716 q 319 774 372 774 q 269 762 292 774 q 230 731 247 750 q 204 688 213 712 q 195 637 195 663 m 401 232 q 389 296 401 269 q 357 345 377 324 q 313 382 338 366 q 261 414 288 399 q 202 369 228 392 q 158 319 176 346 q 130 259 139 292 q 121 186 121 227 q 129 132 121 157 q 155 88 138 107 q 196 58 172 69 q 250 48 219 48 q 315 64 287 48 q 363 107 344 81 q 391 167 382 134 q 401 232 401 199 m 528 679 q 515 610 528 641 q 481 553 502 579 q 432 506 460 527 q 376 466 405 484 q 424 431 401 450 q 464 389 447 413 q 492 336 481 366 q 503 269 503 306 q 479 159 503 211 q 415 66 455 106 q 321 2 374 26 q 211 -21 269 -21 q 129 -5 164 -21 q 70 36 94 10 q 34 97 46 63 q 23 169 23 131 q 39 256 23 216 q 84 330 56 296 q 147 391 111 363 q 220 439 182 418 q 178 467 198 452 q 144 502 159 483 q 120 546 129 522 q 112 603 112 571 q 132 695 112 652 q 187 770 153 738 q 267 820 222 802 q 359 838 311 838 q 432 826 401 838 q 485 793 464 814 q 517 743 507 772 q 528 679 528 713 "},"p":{"x_min":-3.4375,"x_max":600,"ha":654,"o":"m 414 546 q 368 529 396 546 q 310 481 340 512 q 249 407 279 450 q 198 312 219 364 l 181 213 q 209 167 191 192 q 251 121 228 143 q 302 86 275 100 q 357 72 329 72 q 422 92 394 72 q 466 148 450 112 q 485 203 478 175 q 496 260 493 232 q 500 314 499 289 q 502 360 502 340 q 494 443 502 408 q 474 500 487 478 q 446 534 461 523 q 414 546 430 546 m 236 590 q 231 533 236 569 q 217 436 227 496 q 299 543 261 504 q 368 603 337 582 q 425 629 400 623 q 471 635 451 635 q 521 621 498 635 q 562 581 544 607 q 589 515 579 554 q 600 425 600 476 q 581 281 600 357 q 519 127 562 205 q 483 72 503 100 q 440 22 463 45 q 389 -13 416 0 q 333 -28 362 -28 q 288 -14 310 -28 q 245 22 266 0 q 204 73 223 44 q 166 130 184 101 l 146 3 q 117 -209 123 -135 q 120 -303 112 -284 q 96 -310 109 -305 q 68 -319 82 -314 q 40 -329 53 -324 q 18 -339 27 -334 l -3 -319 q 6 -258 0 -299 q 23 -161 13 -216 q 44 -39 33 -105 q 68 93 56 25 q 91 228 79 161 q 110 351 102 294 q 124 450 119 407 q 129 515 129 493 q 126 540 129 531 q 118 553 123 549 q 108 559 114 558 q 97 561 103 561 q 79 558 91 561 q 57 552 68 556 q 29 544 44 549 l 19 569 q 77 594 48 582 q 132 615 106 606 q 176 629 157 624 q 204 635 196 635 q 226 625 217 635 q 236 590 236 616 "},"4":{"x_min":8.140625,"x_max":512.734375,"ha":558,"o":"m 109 308 l 339 308 l 393 704 l 109 308 m 512 288 q 497 270 504 278 q 483 257 490 263 q 470 247 476 252 q 457 237 463 243 l 413 237 l 392 70 q 393 60 390 65 q 405 51 396 56 q 430 40 414 46 q 470 29 446 35 l 466 0 l 168 0 l 172 29 q 238 43 212 36 q 278 55 263 49 q 299 66 293 60 q 307 77 305 71 l 327 237 l 26 237 l 8 259 l 383 795 q 434 820 411 808 q 474 844 456 833 l 493 820 l 423 309 l 497 309 l 512 288 "},"R":{"x_min":1.046875,"x_max":731.5,"ha":731,"o":"m 731 73 q 679 40 705 55 q 631 14 653 25 q 592 -3 610 2 q 566 -10 575 -10 q 544 -6 555 -10 q 523 7 534 -2 q 501 34 513 16 q 477 79 490 51 l 323 399 q 283 403 304 400 q 245 410 262 406 l 199 70 q 219 50 197 62 q 283 29 240 38 l 279 0 l 1 0 l 5 29 q 73 49 47 38 q 100 70 99 61 l 201 809 q 149 801 175 805 q 96 791 123 796 l 96 832 q 158 848 127 840 q 222 862 188 856 q 295 871 256 868 q 380 875 334 875 q 488 861 439 875 q 571 819 536 847 q 625 751 606 792 q 644 658 644 711 q 632 593 644 632 q 593 517 620 555 q 523 448 566 480 q 416 404 479 416 l 574 124 q 598 91 587 102 q 624 76 609 79 q 662 80 639 74 q 719 99 684 86 l 731 73 m 348 817 l 324 817 q 300 817 312 817 l 251 459 q 290 451 271 454 q 328 448 309 448 q 411 460 371 448 q 480 495 450 472 q 528 554 510 519 q 546 638 546 590 q 527 723 546 688 q 479 778 508 757 q 416 808 451 799 q 348 817 381 817 "},"o":{"x_min":36,"x_max":550,"ha":586,"o":"m 452 342 q 414 501 452 446 q 306 556 376 556 q 225 527 258 556 q 171 456 192 499 q 142 364 151 414 q 134 270 134 314 q 145 185 134 225 q 176 114 156 144 q 222 66 196 84 q 280 49 249 49 q 336 62 311 49 q 380 100 360 76 q 412 153 399 123 q 435 216 426 184 q 447 281 443 249 q 452 342 452 314 m 550 379 q 539 287 550 333 q 509 196 529 240 q 461 113 490 153 q 394 42 432 73 q 357 15 377 28 q 317 -7 337 2 q 276 -22 297 -17 q 234 -28 255 -28 q 150 -7 187 -28 q 87 46 113 12 q 49 129 62 81 q 36 233 36 177 q 44 327 36 282 q 70 414 52 372 q 119 495 88 456 q 194 569 149 533 q 270 616 229 597 q 354 635 311 635 q 444 616 406 635 q 504 563 481 597 q 539 482 528 529 q 550 379 550 435 "},"5":{"x_min":-2.703125,"x_max":541.546875,"ha":558,"o":"m 541 809 q 523 787 533 798 q 502 765 513 775 q 482 746 492 755 q 465 732 473 738 l 229 732 q 217 680 225 712 q 200 616 209 649 q 183 555 191 583 q 170 511 175 526 q 229 524 196 519 q 294 529 263 529 q 377 512 341 529 q 438 466 414 495 q 476 400 463 438 q 490 323 490 363 q 481 241 490 282 q 455 162 472 200 q 415 90 439 124 q 359 32 390 56 q 288 -6 327 7 q 205 -21 250 -21 q 97 3 149 -21 q -2 80 45 27 l 25 126 q 80 87 55 102 q 126 63 105 72 q 164 52 147 55 q 200 49 182 49 q 286 71 250 49 q 345 130 322 94 q 379 211 368 166 q 390 300 390 256 q 380 362 390 334 q 352 410 371 390 q 307 442 334 430 q 247 454 281 454 q 105 399 178 454 l 80 422 q 96 478 87 446 q 115 547 105 511 q 136 620 126 583 q 155 693 146 657 q 172 761 164 729 q 184 817 180 793 l 451 817 q 482 818 468 817 q 505 823 496 820 q 525 829 517 825 l 541 809 "}}}
